<?xml version="1.0" encoding="UTF-8"?>
<!DOCTYPE svg PUBLIC "-//W3C//DTD SVG 1.1//EN" "http://www.w3.org/Graphics/SVG/1.1/DTD/svg11.dtd">
<!-- Creator: CorelDRAW X5 -->
<svg xmlns="http://www.w3.org/2000/svg" xml:space="preserve" width="91.44mm" height="91.44mm" style="shape-rendering:geometricPrecision; text-rendering:geometricPrecision; image-rendering:optimizeQuality; fill-rule:evenodd; clip-rule:evenodd"
viewBox="0 0 9144 9144"
 xmlns:xlink="http://www.w3.org/1999/xlink">
 <defs>
  <style type="text/css">
   <![CDATA[
    .fil3 {fill:#1EAC4B}
    .fil0 {fill:#268ACB}
    .fil2 {fill:#8FC43F}
    .fil4 {fill:#DF3286}
    .fil6 {fill:#E41F29}
    .fil5 {fill:#EF9720}
    .fil1 {fill:white}
   ]]>
  </style>
 </defs>
 <g id="Layer_x0020_1">
  <metadata id="CorelCorpID_0Corel-Layer"/>
  <path class="fil0" d="M411 3397l5136 -284c171,-9 345,144 311,311 -368,1824 -303,3625 97,5408 38,167 -140,311 -311,311l-5389 0c-171,0 -293,-201 -245,-366 409,-1426 516,-3028 136,-5077 -31,-168 94,-294 265,-304z"/>
  <path class="fil1" d="M1661 4145c125,0 226,101 226,226 0,125 -101,226 -226,226 -125,0 -226,-101 -226,-226 0,-125 101,-226 226,-226zm2327 999c-1,-120 96,-218 215,-219 120,-1 218,96 219,215l0 8 0 2 0 0 0 8 1 0c0,415 -168,791 -440,1063 -272,272 -648,440 -1063,440 -415,0 -791,-168 -1063,-440 -272,-272 -440,-648 -440,-1063l1 0 0 -8c0,-120 97,-217 217,-217 120,0 217,97 217,217l0 8 1 0c0,295 119,561 312,754 193,193 460,312 754,312 295,0 561,-119 754,-312 193,-193 312,-460 312,-754l1 0 0 -6 0 0 0 -8zm192 -999c125,0 226,101 226,226 0,125 -101,226 -226,226 -125,0 -226,-101 -226,-226 0,-125 101,-226 226,-226z"/>
  <path class="fil2" d="M2523 3053l-234 -1962 109 -113c5,10 10,20 16,27 78,-39 279,-152 419,-232 46,49 112,80 184,80 77,0 146,-34 192,-89l487 106 134 85c0,0 191,1633 241,2078l-1538 85 -12 -65zm183 -2652l-167 -283c0,0 72,-31 113,-14 41,18 90,43 115,31 25,-12 117,-107 156,-121 39,-14 51,-14 51,-14 0,0 121,37 150,66 29,29 45,43 74,31 29,-12 113,-80 146,-84 33,-4 55,-2 55,-2l-90 346c-39,22 -76,43 -110,63 -46,-46 -109,-74 -179,-74 -73,0 -140,31 -186,81l-126 -27z"/>
  <path class="fil3" d="M2332 319c-22,49 -9,556 82,685 78,-39 279,-152 419,-232 46,49 112,80 184,80 77,0 146,-34 192,-89l493 107c22,-49 9,-556 -82,-685 -79,39 -285,155 -425,235 -46,-46 -109,-74 -179,-74 -73,0 -140,31 -186,81l-499 -108z"/>
  <path class="fil4" d="M3555 1511l685 154 23 5 0 0 -23 -5 -308 1375 -877 49 329 -1469c17,-77 94,-125 171,-108zm1555 349l632 142c77,17 125,94 108,171l-173 771 -877 49 253 -1128c19,-1 38,-2 56,-4z"/>
  <path class="fil5" d="M4240 1665l23 5c-116,-87 -416,-285 -344,-450 90,-205 320,-187 453,-60 133,127 207,345 215,475 0,0 86,-27 150,5 64,32 76,37 76,37 0,0 321,-410 538,-329 217,81 278,253 216,327 -58,70 -247,175 -513,188l-253 1128 -870 48 308 -1375zm181 -84c0,0 -71,-278 -169,-326 -98,-48 -158,-29 -186,28 -28,57 160,187 355,298zm947 -63c0,0 70,56 43,99 -27,43 -268,92 -320,94 -52,2 -113,-1 -113,-1 0,0 149,-137 229,-182 80,-46 131,-31 160,-10z"/>
  <path class="fil5" d="M248 2338l818 -197 28 -7 0 0 -28 7 252 1044 -1028 57 -168 -697c-22,-92 35,-185 126,-207zm1857 -448l755 -182c92,-22 185,35 207,126l299 1237 -1028 57 -291 -1204c20,-11 39,-23 58,-34z"/>
  <path class="fil6" d="M1065 2141l28 -7c-171,-32 -598,-86 -608,-302 -12,-269 245,-370 456,-304 210,66 405,261 483,397 0,0 78,-74 164,-74 86,0 101,0 101,0 0,0 128,-611 405,-639 276,-27 432,125 405,238 -25,105 -173,319 -452,474l291 1204 -1020 56 -252 -1044zm150 -186c0,0 -224,-261 -354,-261 -130,0 -185,53 -185,128 0,76 271,117 539,132zm985 -568c0,0 105,23 99,84 -6,60 -239,241 -294,271 -55,29 -123,58 -123,58 0,0 88,-226 150,-317 62,-92 125,-103 167,-95z"/>
  <path class="fil0" d="M8940 3029c113,0 204,91 204,204 0,113 -91,204 -204,204 -113,0 -204,-91 -204,-204 0,-113 91,-204 204,-204zm-882 -304c114,-124 250,-200 407,-208 0,904 0,1808 0,2712 -114,124 -250,200 -407,208 0,-904 0,-1808 0,-2712zm-1137 977c479,0 867,388 867,867 0,479 -388,867 -867,867 -479,0 -867,-388 -867,-867l0 -1345c114,-124 250,-200 407,-208 0,492 0,984 0,1476 0,361 141,666 420,666 326,0 517,-264 517,-590 0,-326 -264,-589 -590,-589 -59,0 -115,9 -169,25 0,0 74,-193 215,-300 22,-2 44,-3 66,-3zm1815 204c114,-124 250,-200 407,-208 0,904 0,627 0,1531 -114,124 -250,200 -407,208 0,-904 0,-627 0,-1531z"/>
  <path class="fil0" d="M8058 6432c114,-124 250,-200 407,-208 0,904 0,1808 0,2712 -114,124 -250,200 -407,208 0,-904 0,-1808 0,-2712zm-1137 977c479,0 867,388 867,867 0,479 -388,867 -867,867 -479,0 -867,-388 -867,-867l0 -1345c114,-124 250,-200 407,-208 0,492 0,984 0,1476 0,361 141,666 420,666 326,0 517,-264 517,-590 0,-326 -264,-589 -590,-589 -59,0 -115,9 -169,24 0,0 74,-193 215,-300 22,-2 44,-3 66,-3zm1815 204c114,-124 250,-200 407,-208 0,904 0,627 0,1531 -114,124 -250,200 -407,208 0,-904 0,-627 0,-1531zm204 -877c113,0 204,91 204,204 0,113 -91,204 -204,204 -113,0 -204,-91 -204,-204 0,-113 91,-204 204,-204z"/>
 </g>
</svg>
