<?xml version="1.0" encoding="UTF-8"?>
<!DOCTYPE svg PUBLIC "-//W3C//DTD SVG 1.1//EN" "http://www.w3.org/Graphics/SVG/1.1/DTD/svg11.dtd">
<!-- Creator: CorelDRAW X5 -->
<svg xmlns="http://www.w3.org/2000/svg" xml:space="preserve" width="91.44mm" height="91.44mm" style="shape-rendering:geometricPrecision; text-rendering:geometricPrecision; image-rendering:optimizeQuality; fill-rule:evenodd; clip-rule:evenodd"
viewBox="0 0 9144 9144"
 xmlns:xlink="http://www.w3.org/1999/xlink">
 <defs>
  <style type="text/css">
   <![CDATA[
    .fil2 {fill:#343535}
    .fil1 {fill:#454646}
    .fil3 {fill:#C32C30}
    .fil4 {fill:#C92B30}
    .fil0 {fill:#FEFEFE}
   ]]>
  </style>
 </defs>
 <g id="Layer_x0020_1">
  <metadata id="CorelCorpID_0Corel-Layer"/>
  <path class="fil0" d="M7321 2497c625,-105 696,865 117,928 -613,66 -730,-824 -117,-928zm429 -736l0 0c204,53 376,240 543,350 -73,-1074 -83,-743 -285,-1561 141,40 38,-37 116,71 102,141 338,1417 215,1669 -72,-22 -45,-12 -100,-63 -169,-159 -97,-135 -358,-309 -143,-95 -93,-21 -131,-156zm-1601 -286l0 0c-187,60 -624,399 -739,524 126,388 -21,629 -462,510 -149,339 -438,584 -492,1386 -45,679 185,1026 577,1281 595,389 1908,377 2143,-667 78,-347 1,-288 -71,-383 161,2 185,-19 313,-62 -82,179 -98,34 -133,263 -59,386 -74,444 -308,764 229,-71 565,-429 721,-450 -72,222 -440,289 -476,485 97,107 390,147 574,155 292,12 363,-53 582,-112 1,-559 78,-933 240,-1422 115,-346 234,-1073 40,-1414 -43,102 24,149 -64,259 -81,-75 -36,-227 -32,-370 3,-134 3,-283 -2,-416 -10,-234 -44,-478 -98,-694 -80,-321 -274,-995 -570,-1027 -50,167 -88,734 -235,1263 -92,330 -48,281 -148,333 -53,-67 -16,-77 -2,-183 -301,-6 -502,5 -770,111 -208,83 -476,311 -561,327l-28 -462z"/>
  <path class="fil1" d="M5219 7167c-294,177 -610,123 -648,-227 78,87 143,204 292,73 312,-273 -155,-704 -161,-1187 -4,-316 173,-593 476,-479 372,140 467,40 582,458 -765,344 -533,1047 -542,1361zm2012 -1909l0 0c116,7 385,86 547,100 267,24 396,-78 598,-82 23,350 32,313 -57,373 -264,178 -806,80 -1100,-74l14 -319zm-1380 507l0 0c823,-42 1222,558 1295,-642 -213,76 -390,201 -640,274 -271,80 -465,91 -770,95l115 274zm2702 -1479l0 0 148 232 -144 22c-46,-94 -52,-35 -4,-254zm-3324 -2082l0 0c13,-23 30,-51 50,-73 81,-91 18,-36 107,-84 -14,124 -31,158 -157,157zm2281 -523l0 0c-53,-67 -16,-77 -2,-183 -301,-6 -502,5 -770,111 -208,83 -476,311 -561,327l-28 -462c-187,60 -624,399 -739,524 126,388 -21,629 -462,510 -149,339 -438,584 -492,1386 -45,679 185,1026 577,1281 595,389 1908,377 2143,-667 78,-347 1,-288 -71,-383 161,2 185,-19 313,-62 -82,179 -98,34 -133,263 -59,386 -74,444 -308,764 229,-71 565,-429 721,-450 -72,222 -440,289 -476,485 97,107 390,147 574,155 292,12 363,-53 582,-112 1,-559 78,-933 240,-1422 115,-346 234,-1073 40,-1414 -43,102 24,149 -64,259 -81,-75 -36,-227 -32,-370 3,-134 3,-283 -2,-416 -10,-234 -44,-478 -98,-694 -80,-321 -274,-995 -570,-1027 -50,167 -88,734 -235,1263 -92,330 -48,281 -148,333zm-1618 -694l0 0c98,127 164,183 219,373 -76,77 -154,122 -254,164l35 -537zm2634 -19l0 0c143,133 248,329 326,515 204,486 279,1330 168,1802 -35,150 30,49 -238,219 58,-482 130,-791 -58,-1252 -108,-264 -58,-361 -88,-654 -24,-233 -79,-417 -111,-631zm-3234 -84l0 0c-11,-746 1891,-703 2462,-437 -12,260 -136,751 -215,969 -755,-38 -837,134 -1282,369 8,-495 -288,-1015 -635,-1094 -243,-56 -258,55 -330,193zm557 -770l0 0c104,26 116,47 163,127 -105,21 -97,30 -178,2l15 -130zm-380 932l0 0c36,-121 -26,-40 -52,-147 -48,-194 162,-162 373,-18 54,746 -28,693 -289,926 -78,69 -134,104 -209,174 -580,537 -989,1443 -917,2285 55,641 449,813 589,993 -708,175 -131,1275 -110,1342 52,165 16,428 -155,351 -24,-78 63,-55 11,-150 -87,-161 -361,59 -156,354 184,263 417,227 731,94 28,117 79,276 183,348 22,-42 73,22 -36,-200 -243,-497 -252,-1105 189,-1416 659,-465 1203,451 1539,-340 198,80 345,159 604,179 327,25 448,-92 662,-112 35,332 142,650 180,989 54,486 -76,582 -235,890 121,2 124,21 230,-222 333,-764 -296,-1496 -109,-2718 63,-32 139,-14 234,-60 79,-39 102,-72 117,-163 -132,-72 -151,19 -195,-213 -43,-226 31,-469 172,-615 69,-71 194,-109 233,-151 148,-159 84,-1220 38,-1459 -94,-482 -265,-831 -520,-1110 -193,-211 -145,-243 -279,-518 -92,-190 -194,-382 -421,-354 -118,119 -83,137 -98,345 -663,-131 -909,-179 -1634,-128l-147 -151c-80,-52 -117,-42 -211,-21l-34 254c-221,88 -384,155 -478,316 -111,192 -54,531 200,427z"/>
  <path class="fil0" d="M5290 884c72,-138 87,-249 330,-193 347,79 643,599 635,1094 445,-235 527,-407 1282,-369 79,-218 203,-709 215,-969 -570,-266 -2473,-308 -2462,437z"/>
  <path class="fil0" d="M5219 7167c9,-314 -223,-1017 542,-1361 -115,-418 -210,-319 -582,-458 -304,-114 -480,163 -476,479 6,483 473,913 161,1187 -149,131 -215,14 -292,-73 38,350 353,404 648,227z"/>
  <path class="fil2" d="M7597 3115c38,-88 -7,-105 100,-32 -55,102 -9,75 -100,32zm124 -227l0 0c60,-271 -209,-324 -280,-159 -74,171 96,304 280,159zm-401 -391l0 0c-614,103 -496,994 117,928 579,-62 508,-1032 -117,-928z"/>
  <path class="fil0" d="M8851 1483c-78,-186 -183,-382 -326,-515 31,214 87,398 111,631 30,293 -20,389 88,654 188,460 115,770 58,1252 267,-170 202,-69 238,-219 111,-472 36,-1316 -168,-1802z"/>
  <path class="fil0" d="M5850 5765c823,-42 1222,558 1295,-642 -213,76 -390,201 -640,274 -271,80 -465,91 -770,95l115 274z"/>
  <path class="fil3" d="M8317 5650c89,-60 80,-23 57,-373 -202,4 -331,106 -598,82 -162,-15 -431,-94 -547,-100l-14 319c294,154 836,252 1100,74z"/>
  <path class="fil1" d="M8293 2110c-167,-110 -340,-297 -543,-350 38,135 -12,61 131,156 262,174 190,150 358,309 54,51 28,42 100,63 124,-252 -113,-1528 -215,-1669 -78,-108 25,-31 -116,-71 202,818 212,487 285,1561z"/>
  <path class="fil0" d="M7721 2888c60,-271 -209,-324 -280,-159 -74,171 96,304 280,159z"/>
  <path class="fil0" d="M5855 1524c100,-42 178,-87 254,-164 -55,-191 -121,-247 -219,-373l-35 537z"/>
  <path class="fil0" d="M8551 4286c-47,218 -42,160 4,254l144 -22 -148 -232z"/>
  <path class="fil0" d="M5832 243c81,27 73,19 178,-2 -47,-81 -59,-101 -163,-127l-15 130z"/>
  <path class="fil0" d="M5228 2204c126,2 143,-33 157,-157 -89,48 -26,-7 -107,84 -20,22 -37,50 -50,73z"/>
  <path class="fil0" d="M7698 3083c-107,-73 -63,-56 -100,32 92,43 45,71 100,-32z"/>
  <path class="fil0" d="M8373 7580l-2898 6c23,-21 52,8 -44,-189 -243,-497 -252,-1105 189,-1416 659,-465 1203,451 1539,-340 198,80 345,159 604,179 327,25 448,-92 662,-112 35,332 142,650 180,989 54,482 -75,581 -231,883z"/>
  <path class="fil4" d="M953 8877l0 -586 0 -110 102 0 12 0 0 81c92,-97 286,-156 387,-14 17,24 29,53 35,87 4,22 6,60 6,115l0 427 -113 0 0 -413c0,-30 -2,-56 -5,-77 -8,-168 -236,-123 -310,-18 0,0 0,81 0,138l0 370 -113 0zm894 -4549l441 0c1269,-31 2056,404 2059,1635 -6,1046 -577,1676 -2059,1635l-441 0 0 -3270zm3920 1560l0 0 220 0c633,-16 1026,201 1027,814 -3,521 -288,834 -1027,814l-220 0 0 -1627zm220 203l0 0 0 1224 148 0c458,16 656,-223 657,-613 -1,-452 -260,-622 -657,-611 0,0 -148,0 -148,0zm-5046 -1763l0 0 462 0 0 2166c-8,810 -546,1111 -1400,1109 0,-132 0,-265 0,-397 517,-14 948,-122 938,-711l0 -2166zm3657 2709l0 0c98,0 177,79 177,177 0,98 -79,177 -177,177 -98,0 -177,-79 -177,-177 0,-98 79,-177 177,-177zm460 -1158l0 0 271 0 0 1639 -271 0 0 -1639zm-2769 -1143l0 0 0 2459 297 0c918,31 1314,-447 1317,-1232 -2,-908 -522,-1250 -1317,-1227 0,0 -297,0 -297,0zm6821 3444l0 0 -116 0 0 35c-183,-127 -478,-46 -466,327 19,328 237,406 466,251 0,24 0,47 0,71 -8,190 -161,212 -404,126l0 123c142,40 279,49 404,-17 81,-65 112,-164 116,-281l0 -635zm-116 133l0 0c0,0 0,384 0,384 -203,112 -333,76 -350,-155 -9,-293 211,-321 350,-229zm-1147 564l0 0 0 -586 0 -110 102 0 12 0 0 81c92,-97 286,-156 387,-14 17,24 29,53 35,87 4,22 6,60 6,115l0 427 -113 0 0 -413c0,-30 -2,-56 -5,-77 -8,-168 -236,-123 -310,-18 0,0 0,81 0,138l0 370 -113 0zm-3848 -58l0 0 0 -148c141,99 211,122 319,117 42,-2 62,-5 94,-19 32,-14 56,-33 71,-58 16,-24 21,-53 21,-82 0,-29 -8,-54 -23,-76 -15,-22 -42,-37 -77,-52 -163,-70 -392,-45 -404,-308 -2,-47 12,-91 36,-132 24,-41 58,-72 104,-93 46,-21 96,-32 152,-32 42,0 143,-5 301,54 0,49 0,98 0,148 -128,-94 -237,-100 -270,-100 -66,0 -115,21 -145,48 -30,27 -46,60 -46,99 0,33 11,75 32,97 21,21 50,44 140,66 89,23 151,28 184,45 48,25 84,56 107,94 23,38 34,82 34,132 0,49 -13,96 -38,139 -25,44 -61,78 -109,102 -47,24 -100,36 -160,36 -153,-4 -237,-23 -324,-78zm2154 -639l0 0 116 0 0 70c239,-178 478,-81 466,292 -24,302 -214,417 -466,304l0 290 -116 0 0 -956zm116 175l0 0c0,0 0,395 0,395 216,92 333,23 350,-208 9,-293 -172,-334 -350,-187zm592 -175l0 0 116 0 0 70c239,-178 478,-81 466,292 -24,302 -214,417 -466,304l0 290 -116 0 0 -956zm716 2l0 0 106 0 0 697 -106 0 0 -697zm-13 -236l0 0 131 0 0 121 -131 0 0 -121zm-587 408l0 0c0,0 0,395 0,395 216,92 333,23 350,-208 9,-293 -172,-334 -350,-187zm-1562 175l0 0c0,-130 34,-227 101,-290 56,-52 125,-78 206,-78 90,0 164,32 221,95 57,63 86,151 86,263 0,91 -13,162 -38,214 -25,52 -62,92 -111,121 -48,29 -101,43 -158,43 -92,0 -166,-32 -223,-95 -57,-63 -85,-155 -85,-273zm114 0l0 0c0,90 18,158 55,203 37,45 83,67 139,67 55,0 101,-22 138,-68 37,-45 55,-114 55,-206 0,-87 -19,-153 -55,-198 -37,-45 -83,-67 -138,-67 -56,0 -102,22 -139,67 -37,45 -55,112 -55,202zm-781 351l0 0 0 -974 114 0 0 350c13,-26 133,-95 200,-97 49,-2 92,10 129,31 36,21 63,49 78,85 16,36 23,89 23,158l0 447 -114 0 0 -446c0,-60 -10,-106 -37,-130 -69,-64 -216,-13 -280,55 0,0 0,81 0,136l0 385 -114 0zm-4747 -454l0 0c0,-157 38,-280 115,-369 77,-89 176,-133 297,-133 80,0 151,21 215,63 64,42 112,100 146,175 33,75 50,159 50,254 0,96 -18,182 -53,258 -35,76 -85,133 -150,172 -65,39 -134,58 -209,58 -81,0 -154,-22 -217,-65 -64,-43 -112,-102 -145,-176 -33,-74 -49,-153 -49,-236zm118 2l0 0c0,114 28,204 84,270 56,66 126,98 210,98 86,0 156,-33 212,-99 55,-66 83,-160 83,-282 0,-77 -12,-144 -35,-202 -24,-57 -58,-102 -104,-134 -46,-32 -97,-47 -154,-47 -81,0 -150,30 -208,91 -58,61 -87,162 -87,305zm3387 279l0 0 1 126c-85,52 -198,59 -275,59 -97,0 -174,-38 -231,-100 -57,-62 -85,-149 -85,-261 0,-116 29,-206 86,-270 58,-64 135,-98 227,-98 226,0 297,151 290,380l-485 0c4,76 23,145 60,186 37,40 84,60 139,60 160,15 273,-82 273,-82zm-467 -257l0 0 370 0c-11,-104 -40,-189 -181,-189 -52,0 -95,18 -131,54 -33,34 -53,79 -58,135zm-787 425l0 0 0 -586 0 -110 102 0 12 0 0 81c92,-97 286,-156 387,-14 17,24 29,53 35,87 4,22 6,60 6,115l0 427 -113 0 0 -413c0,-30 -2,-56 -5,-77 -8,-168 -236,-123 -311,-18 0,0 0,81 0,138l0 370 -113 0zm-582 -4l0 0 0 -963 111 0 0 963 -111 0zm285 -808l0 0 0 -121 130 0 0 121 -130 0zm9 808l0 0 0 -690 111 0 0 690 -111 0z"/>
 </g>
</svg>
