<?xml version="1.0" encoding="UTF-8"?>
<!DOCTYPE svg PUBLIC "-//W3C//DTD SVG 1.1//EN" "http://www.w3.org/Graphics/SVG/1.1/DTD/svg11.dtd">
<!-- Creator: CorelDRAW X5 -->
<svg xmlns="http://www.w3.org/2000/svg" xml:space="preserve" width="270.29mm" height="28.9172mm" style="shape-rendering:geometricPrecision; text-rendering:geometricPrecision; image-rendering:optimizeQuality; fill-rule:evenodd; clip-rule:evenodd"
viewBox="0 0 27402 2932"
 xmlns:xlink="http://www.w3.org/1999/xlink">
 <defs>
  <style type="text/css">
   <![CDATA[
    .fil0 {fill:none}
    .fil1 {fill:#FEFEFE}
    .fil2 {fill:#FEFEFE;fill-opacity:0.250980}
   ]]>
  </style>
 </defs>
 <g id="Layer_x0020_1">
  <metadata id="CorelCorpID_0Corel-Layer"/>
  <rect class="fil0" y="1" width="27402" height="2930"/>
  <g id="_399980744">
   <path class="fil1" d="M6450 677c138,-69 305,-106 458,-120l172 -15c188,-16 377,-6 565,-6l103 0 0 103c0,459 0,918 0,1377l0 53c0,474 -388,862 -862,862l-1737 0 0 -2395 103 0c189,0 377,-12 565,2l172 13c163,12 313,52 459,126zm-1196 -38l0 1180 0 197 0 53 0 758 758 0 119 0 756 0c417,0 758,-341 758,-758l0 -53c0,-456 0,-902 0,-1377 -181,0 -373,-4 -556,6l-172 15c-168,20 -339,60 -468,134 -139,-80 -291,-120 -467,-140l-172 -13c-188,-9 -380,-2 -557,-2z"/>
   <path class="fil0" d="M5254 640l0 1180 0 197 0 53 0 758 758 0 119 0 756 0c417,0 758,-341 758,-758l0 -53c0,-456 0,-902 0,-1377 -181,0 -373,-4 -556,6l-172 15c-168,20 -339,60 -468,134 -139,-80 -291,-120 -467,-140l-172 -13c-187,-9 -380,-2 -557,-2z"/>
   <path class="fil2" d="M5468 2828l544 0 119 0 756 0c185,0 354,-67 486,-178 -154,-358 -510,-608 -924,-608 -480,0 -881,336 -981,786z"/>
   <path class="fil0" d="M6449 2828l446 -7c182,0 348,-64 478,-171 166,-138 272,-346 272,-581l0 -53c0,-456 0,-902 0,-1377 -181,0 -373,-4 -556,6l-172 15c-168,20 -339,60 -468,134l0 2033z"/>
   <path class="fil0" d="M6449 2828l440 0c185,0 352,-67 484,-178 -152,-354 -516,-603 -924,-608l0 786z"/>
   <path class="fil1" d="M7089 574c-33,-323 -306,-574 -637,-574 -331,0 -604,249 -641,570l172 13c30,-232 228,-411 469,-411 241,0 440,182 465,417l172 -15z"/>
   <path class="fil1" d="M6729 2143c-75,79 -150,158 -225,238l-55 58 -55 -58c-75,-79 -150,-159 -225,-238l-39 -41 28 -49c60,-104 172,-159 290,-159 118,0 230,56 290,159l28 49 -39 41zm-55 -52c-75,79 -150,158 -225,238 -75,-79 -150,-159 -225,-238 47,-82 136,-122 225,-122 89,0 177,40 225,122z"/>
   <path class="fil1" d="M5888 938c335,0 608,272 608,608 0,335 -272,608 -608,608 -336,0 -607,-272 -607,-608 0,-335 272,-608 607,-608zm0 103c278,0 504,226 504,504 0,278 -226,504 -504,504 -279,0 -504,-226 -504,-504 0,-278 226,-504 504,-504z"/>
   <path class="fil0" d="M5888 1042c278,0 504,226 504,504 0,278 -226,504 -504,504 -279,0 -504,-226 -504,-504 0,-278 226,-504 504,-504z"/>
   <path class="fil1" d="M7011 938c336,0 608,272 608,608 0,335 -272,608 -608,608 -336,0 -608,-272 -608,-608 0,-335 272,-608 608,-608zm0 103c278,0 504,226 504,504 0,278 -226,504 -504,504 -278,0 -504,-226 -504,-504 0,-278 226,-504 504,-504z"/>
   <path class="fil0" d="M7011 1042c230,0 424,154 484,364 -61,210 -255,364 -484,364 -230,0 -424,-154 -484,-364 61,-210 255,-364 484,-364z"/>
   <path class="fil1" d="M5952 1232c180,0 326,146 326,325 0,180 -146,326 -326,326 -180,0 -326,-146 -326,-326 0,-60 16,-116 45,-164 23,57 79,98 145,98 87,0 157,-70 157,-157 0,-39 -14,-75 -38,-102 5,0 11,0 16,0z"/>
   <path class="fil1" d="M6947 1232c180,0 326,146 326,325 0,180 -146,326 -326,326 -180,0 -326,-146 -326,-326 0,-60 16,-116 44,-164 23,57 80,98 146,98 87,0 157,-70 157,-157 0,-39 -14,-75 -38,-102 5,0 11,0 16,0z"/>
   <path class="fil1" d="M15910 2061c-148,150 -325,226 -531,226 -166,0 -307,-34 -451,-118l0 -344c116,79 261,153 405,153 299,0 478,-206 478,-498 0,-292 -185,-505 -484,-505 -134,0 -242,48 -327,144 -91,105 -138,254 -138,451l0 1360 -23 0c-165,0 -299,-134 -299,-299l0 -1113c0,-472 289,-853 785,-853 245,0 444,84 595,252 142,157 212,357 212,596 0,213 -74,396 -222,546zm-6815 194c-314,0 -470,-214 -470,-512l0 -1133c0,-165 134,-299 299,-299l23 0 0 387 543 0 0 309 -543 0 0 771c0,131 59,168 184,168l359 0 0 309 -394 0zm1867 -197c-159,152 -350,229 -571,229 -220,0 -409,-76 -568,-229 -159,-153 -239,-347 -239,-582 0,-457 349,-810 807,-810 220,0 410,77 570,230 160,154 240,348 240,580 0,234 -79,429 -239,582zm1502 -985c-47,79 -84,136 -109,170 -28,37 -56,67 -84,88 223,72 307,227 307,457l0 467 -23 0c-165,0 -299,-134 -299,-299l0 -137c0,-149 -67,-251 -225,-251l-292 0 0 686 -23 0c-165,0 -299,-134 -299,-299l0 -1658c0,-165 134,-299 299,-299l23 0 0 1257 95 0c104,0 173,-36 212,-103l270 -456 366 0 -218 375zm1659 985c-159,152 -350,229 -571,229 -220,0 -409,-76 -568,-229 -159,-153 -239,-347 -239,-582 0,-457 349,-810 807,-810 220,0 410,77 570,230 160,154 240,348 240,580 0,234 -79,429 -239,582zm-232 -944c-89,-93 -201,-139 -339,-139 -296,0 -473,216 -473,501 0,282 181,501 473,501 292,0 473,-220 473,-501 0,-150 -45,-270 -133,-362zm-3162 0c-89,-93 -201,-139 -339,-139 -296,0 -473,216 -473,501 0,282 181,501 473,501 292,0 473,-220 473,-501 0,-150 -45,-270 -134,-362zm8660 935c-148,158 -337,237 -568,237 -243,0 -441,-84 -592,-252 -142,-159 -212,-359 -212,-596 0,-421 325,-772 752,-772 165,0 308,35 453,114l0 348c-116,-79 -261,-153 -405,-153 -299,0 -478,206 -478,498 0,288 189,505 484,505 134,0 244,-50 332,-151 87,-100 133,-248 133,-446l0 -1083c0,-165 134,-299 299,-299l22 0 0 1432c0,252 -73,459 -220,617zm908 -1536c-34,38 -82,55 -141,55 -110,0 -189,-81 -189,-191 0,-112 77,-188 189,-188 108,0 189,80 189,188 0,53 -16,99 -48,136zm1633 868c0,-127 -48,-227 -144,-303 -87,-68 -195,-103 -327,-103 -291,0 -478,227 -478,508 0,270 198,495 475,495 192,0 295,-112 405,-252l0 404c-56,42 -120,87 -186,114 -69,29 -152,43 -247,43 -463,0 -768,-383 -768,-826 0,-227 71,-415 213,-562 151,-155 349,-232 591,-232 459,0 788,264 788,740l0 848 -23 0c-165,0 -299,-134 -299,-299l0 -575zm-4400 -91c-41,-126 -92,-187 -209,-253 -278,-156 -552,-23 -680,252l889 1zm-245 992c-205,44 -407,10 -603,-100 -192,-107 -320,-266 -384,-477 -130,-425 136,-900 565,-1015 212,-57 416,-31 610,77 322,180 439,458 418,816l-1295 -3c19,146 110,260 237,332 129,72 248,89 358,55 122,-38 221,-138 302,-231l264 192c-108,193 -254,307 -471,353zm2710 -1584l321 0 0 1557 -22 0c-165,0 -299,-134 -299,-299l0 -1258z"/>
  </g>
 </g>
</svg>
