<?xml version="1.0" encoding="UTF-8"?>
<!DOCTYPE svg PUBLIC "-//W3C//DTD SVG 1.1//EN" "http://www.w3.org/Graphics/SVG/1.1/DTD/svg11.dtd">
<!-- Creator: CorelDRAW X5 -->
<svg xmlns="http://www.w3.org/2000/svg" xml:space="preserve" width="270.29mm" height="28.9056mm" style="shape-rendering:geometricPrecision; text-rendering:geometricPrecision; image-rendering:optimizeQuality; fill-rule:evenodd; clip-rule:evenodd"
viewBox="0 0 27029 2891"
 xmlns:xlink="http://www.w3.org/1999/xlink">
 <defs>
  <style type="text/css">
   <![CDATA[
    .fil0 {fill:none}
    .fil1 {fill:#FEFEFE;fill-rule:nonzero}
   ]]>
  </style>
 </defs>
 <g id="Layer_x0020_1">
  <metadata id="CorelCorpID_0Corel-Layer"/>
  <rect class="fil0" width="27029" height="2891"/>
  <g id="_399980744">
   <path class="fil1" d="M10690 654l-497 0c-56,-498 -295,-663 -485,-654 -214,11 -431,239 -439,654l-497 0c-39,0 -70,31 -70,70l92 1402c0,39 103,216 266,214l1349 0c236,-37 266,-235 266,-273l85 -1343c0,-39 -31,-70 -70,-70zm-976 -538l0 0c138,-7 313,131 362,538l-691 0c8,-339 173,-530 329,-538zm140 1927l0 0c-161,31 -368,-23 -481,-144 -51,-55 31,-137 82,-82 76,82 211,120 321,117 140,-3 266,-131 186,-274 -110,-198 -383,-142 -523,-298 -113,-125 -60,-323 73,-410 139,-91 378,-88 492,43 49,56 -33,139 -82,82 -92,-106 -310,-91 -393,17 -118,155 59,239 182,276 170,51 358,145 389,340 25,157 -97,303 -247,332z"/>
   <path class="fil1" d="M15454 1338c-154,0 -292,65 -386,169l0 -120c0,-109 -174,-109 -174,0l0 1422c0,109 174,109 174,0l0 -633c95,104 233,169 386,169 285,0 517,-225 517,-503 0,-277 -232,-503 -517,-503zm0 824l0 0c-182,0 -330,-144 -330,-321 0,-159 120,-292 277,-317 1,0 2,0 3,0 16,-2 33,-4 50,-4 135,0 251,79 302,192 0,0 0,1 0,1 18,39 28,83 28,128 0,177 -148,321 -330,321zm-1284 182c-285,0 -517,-226 -517,-503 0,-277 232,-503 517,-503 285,0 517,226 517,503 0,277 -232,503 -517,503zm0 -824l0 0c-182,0 -330,144 -330,321 0,177 148,321 330,321 182,0 330,-144 330,-321 0,-177 -148,-321 -330,-321zm4157 311c-4,-231 -126,-440 -378,-486 -217,-40 -471,71 -564,269 -96,205 -56,487 134,631 205,155 525,107 735,-7 98,-53 10,-199 -88,-146 -133,73 -307,108 -457,60 -112,-36 -174,-130 -193,-235l724 0c46,0 88,-39 87,-85zm-805 -85l0 0c1,-6 3,-13 5,-19 42,-138 184,-218 328,-221 166,-4 259,107 288,240l-621 0zm-354 86c-4,-231 -126,-440 -378,-486 -217,-40 -471,71 -564,269 -96,205 -56,487 134,631 205,155 525,107 735,-7 98,-53 10,-199 -88,-146 -133,73 -307,108 -457,60 -112,-36 -174,-130 -193,-235l724 0c46,0 88,-39 87,-85zm-805 -85l0 0c1,-6 3,-13 5,-19 42,-138 184,-218 328,-221 166,-4 259,107 288,240l-621 0zm-2916 -78l0 588c0,111 -174,111 -174,0l0 -576c-6,-114 -103,-166 -106,-168 -124,-54 -349,-29 -483,141l0 603c0,111 -174,111 -174,0l0 -1510c0,-111 174,-110 174,0l0 678c213,-143 485,-127 612,-39 0,0 153,84 151,283zm-1223 -852c-171,-189 -529,-194 -736,-62 -199,126 -279,411 -110,592 210,224 617,144 783,429 120,206 -68,391 -278,395 -165,4 -367,-52 -481,-169 -76,-79 -199,40 -123,119 169,175 479,252 720,208 225,-42 407,-252 370,-478 -46,-281 -328,-416 -582,-490 -185,-54 -450,-175 -273,-398 124,-157 450,-178 588,-25 74,82 196,-38 123,-119z"/>
  </g>
 </g>
</svg>
