<?xml version="1.0" encoding="UTF-8"?>
<!DOCTYPE svg PUBLIC "-//W3C//DTD SVG 1.1//EN" "http://www.w3.org/Graphics/SVG/1.1/DTD/svg11.dtd">
<!-- Creator: CorelDRAW X5 -->
<svg xmlns="http://www.w3.org/2000/svg" xml:space="preserve" width="270.29mm" height="28.9057mm" style="shape-rendering:geometricPrecision; text-rendering:geometricPrecision; image-rendering:optimizeQuality; fill-rule:evenodd; clip-rule:evenodd"
viewBox="0 0 27402 2930"
 xmlns:xlink="http://www.w3.org/1999/xlink">
 <defs>
  <style type="text/css">
   <![CDATA[
    .fil0 {fill:none}
    .fil1 {fill:#FEFEFE}
   ]]>
  </style>
 </defs>
 <g id="Layer_x0020_1">
  <metadata id="CorelCorpID_0Corel-Layer"/>
  <rect class="fil0" width="27402" height="2930"/>
  <g id="_396647480">
   <path class="fil1" d="M18331 2352c310,264 775,127 943,-266 175,-410 119,-962 -320,-1177 -292,-143 -1073,-48 -1084,54l0 1967 460 0 0 -579zm0 -384c120,161 408,124 509,-21 112,-161 131,-485 -23,-623 -111,-100 -325,-119 -487,-39l0 684z"/>
   <path class="fil1" d="M8497 2452c927,108 1307,2 1435,-460 149,-536 -152,-1380 -1005,-991l0 -523 -431 0 0 1974zm431 -1091l0 688c22,78 612,126 628,-344 9,-285 -299,-569 -628,-344z"/>
   <path class="fil1" d="M12918 1685l580 -770 -478 0 -452 627c-8,11 -22,15 -35,11 -13,-4 -21,-16 -21,-29l0 -1045 -450 0 0 2023 450 0 0 -598c0,-14 8,-25 21,-29 13,-4 26,0 34,11l460 616 497 0 -606 -779c-9,-11 -9,-26 0,-38z"/>
   <path class="fil1" d="M14553 1701l-1 301c-1,68 -166,176 -355,122 -267,-77 -188,-502 356,-423zm506 751l52 -269c-86,-27 -159,-68 -156,-174 17,-553 100,-834 -190,-1032 -171,-116 -461,-147 -1024,-23l91 307c147,-17 743,-169 738,152 -279,-8 -575,2 -814,178 -275,203 -232,640 25,820 174,122 527,134 784,-101 140,176 366,201 493,140z"/>
   <path class="fil1" d="M11797 2176c-107,-19 -137,-52 -137,-163l0 -1098 -428 0 0 1009c0,128 -132,198 -252,199 -153,2 -303,-99 -303,-264l0 -945 -423 0 0 1070c22,396 416,709 1002,354 143,159 323,151 491,126l51 -288z"/>
   <polygon class="fil1" points="15815,2496 15373,2496 15373,474 15815,474 "/>
   <path class="fil1" d="M17058 1701l-1 301c-1,68 -166,176 -355,122 -267,-77 -188,-502 356,-423zm506 751l52 -269c-86,-27 -159,-68 -156,-174 17,-553 100,-834 -190,-1032 -171,-116 -461,-147 -1024,-23l91 307c147,-17 743,-169 738,152 -279,-8 -575,2 -814,178 -275,203 -232,640 25,820 174,122 527,134 784,-101 140,176 366,201 493,140z"/>
   <path class="fil1" d="M20504 1701l-1 301c-1,68 -166,176 -355,122 -267,-77 -188,-502 356,-423zm506 751l52 -269c-86,-27 -159,-68 -156,-174 17,-553 100,-834 -190,-1032 -171,-116 -461,-147 -1024,-23l91 307c147,-17 743,-169 738,152 -279,-8 -575,2 -814,178 -275,203 -232,640 25,820 174,122 527,134 784,-101 140,176 366,201 493,140z"/>
   <path class="fil1" d="M22175 1685l580 -770 -478 0 -452 627c-8,11 -22,15 -35,11 -13,-4 -21,-16 -21,-29l0 -1045 -450 0 0 2023 450 0 0 -598c0,-14 8,-25 21,-29 13,-4 26,0 34,11l460 616 497 0 -606 -779c-9,-11 -9,-26 0,-38z"/>
   <path class="fil1" d="M4776 164l460 -152c63,-21 125,-15 183,18 58,33 95,83 109,148l321 1441c25,113 -38,226 -147,263l-187 65c-112,39 -234,-15 -282,-123l-593 -1353c-27,-61 -26,-123 1,-183 27,-60 73,-102 136,-123z"/>
   <circle class="fil1" transform="matrix(0.588405 -0.00423237 0.00423237 0.588405 5798.3 2537.28)" r="649"/>
   <path class="fil1" d="M6588 1909c-6,3 -61,27 -120,50 -103,41 -150,160 -109,263l82 209c21,54 59,93 113,116 54,23 103,15 158,-5 453,-167 744,-564 703,-1057 -42,-507 -419,-879 -876,-954 -164,-27 -298,-16 -453,13 -34,6 -88,22 -107,51 -19,29 -24,61 -15,95l108 402c15,56 71,92 128,78 87,-22 164,-22 220,-18 212,16 350,192 365,371 16,179 -46,293 -196,386z"/>
  </g>
 </g>
</svg>
