<?xml version="1.0" encoding="UTF-8"?>
<!DOCTYPE svg PUBLIC "-//W3C//DTD SVG 1.1//EN" "http://www.w3.org/Graphics/SVG/1.1/DTD/svg11.dtd">
<!-- Creator: CorelDRAW X5 -->
<svg xmlns="http://www.w3.org/2000/svg" xml:space="preserve" width="168.687mm" height="28.918mm" style="shape-rendering:geometricPrecision; text-rendering:geometricPrecision; image-rendering:optimizeQuality; fill-rule:evenodd; clip-rule:evenodd"
viewBox="0 0 17147 2939"
 xmlns:xlink="http://www.w3.org/1999/xlink">
 <defs>
  <style type="text/css">
   <![CDATA[
    .fil1 {fill:none}
    .fil0 {fill:#FEFEFE}
   ]]>
  </style>
 </defs>
 <g id="Layer_x0020_1">
  <metadata id="CorelCorpID_0Corel-Layer"/>
  <path class="fil0" d="M1303 679c138,-69 306,-107 459,-120l172 -15c189,-16 378,-6 567,-6l104 0 0 104c0,460 0,921 0,1381l0 53c0,475 -389,864 -864,864l-1741 0 0 -2401 104 0c189,0 378,-12 567,2l172 13c164,12 314,52 461,126zm-1200 -38l0 1183 0 198 0 53 0 760 760 0 119 0 758 0c418,0 760,-342 760,-760l0 -53c0,-458 0,-904 0,-1381 -182,0 -374,-4 -558,6l-172 15c-169,21 -339,60 -469,135 -140,-81 -292,-121 -468,-140l-172 -13c-188,-9 -381,-2 -559,-2z"/>
  <path class="fil1" d="M104 642l0 1183 0 198 0 53 0 760 760 0 119 0 758 0c418,0 760,-342 760,-760l0 -53c0,-458 0,-904 0,-1381 -182,0 -374,-4 -558,6l-172 15c-169,21 -339,60 -469,135 -140,-81 -292,-121 -468,-140l-172 -13c-188,-9 -381,-2 -559,-2z"/>
  <path class="fil1" d="M319 2836l545 0 119 0 758 0c185,0 355,-67 488,-178 -154,-359 -511,-610 -926,-610 -481,0 -884,337 -984,788z"/>
  <path class="fil1" d="M1303 2836l448 -7c183,0 349,-64 479,-172 167,-138 273,-347 273,-582l0 -53c0,-458 0,-904 0,-1381 -182,0 -374,-4 -558,6l-172 15c-169,21 -339,60 -469,135l0 2039z"/>
  <path class="fil1" d="M1303 2836l442 0c185,0 353,-67 485,-178 -153,-355 -517,-604 -926,-610l0 788z"/>
  <path class="fil0" d="M1944 576c-33,-324 -306,-576 -638,-576 -332,0 -605,250 -643,572l172 13c30,-232 229,-412 470,-412 241,0 441,183 467,418l172 -15z"/>
  <path class="fil0" d="M1583 2149c-75,79 -150,159 -225,238l-55 59 -55 -59c-75,-79 -150,-159 -225,-238l-39 -41 28 -49c60,-104 173,-160 291,-160 118,0 231,56 291,160l28 49 -39 41zm-55 -52c-75,80 -150,159 -225,238 -75,-80 -150,-159 -225,-238 47,-82 136,-122 225,-122 89,0 178,40 225,122z"/>
  <path class="fil0" d="M740 941c336,0 609,273 609,609 0,336 -273,609 -609,609 -336,0 -609,-273 -609,-609 0,-336 273,-609 609,-609zm0 104c279,0 506,226 506,506 0,279 -226,506 -506,506 -279,0 -506,-226 -506,-506 0,-279 226,-506 506,-506z"/>
  <path class="fil1" d="M740 1044c279,0 506,226 506,506 0,279 -226,506 -506,506 -279,0 -506,-226 -506,-506 0,-279 226,-506 506,-506z"/>
  <path class="fil0" d="M1865 941c336,0 609,273 609,609 0,336 -273,609 -609,609 -336,0 -609,-273 -609,-609 0,-336 273,-609 609,-609zm0 104c279,0 506,226 506,506 0,279 -226,506 -506,506 -279,0 -506,-226 -506,-506 0,-279 226,-506 506,-506z"/>
  <path class="fil1" d="M1865 1044c230,0 425,154 486,365 -61,211 -255,365 -486,365 -230,0 -425,-154 -486,-365 61,-211 255,-365 486,-365z"/>
  <path class="fil0" d="M803 1236c180,0 327,146 327,326 0,180 -146,327 -327,327 -180,0 -327,-146 -327,-327 0,-60 16,-116 45,-165 23,58 80,98 146,98 87,0 157,-70 157,-157 0,-39 -14,-75 -38,-102 5,0 11,0 16,0z"/>
  <path class="fil0" d="M1802 1236c180,0 327,146 327,326 0,180 -146,327 -327,327 -180,0 -326,-146 -326,-327 0,-60 16,-116 45,-165 23,58 80,98 146,98 87,0 157,-70 157,-157 0,-39 -14,-75 -38,-102 5,0 11,0 16,0z"/>
  <path class="fil0" d="M10788 2067c-148,151 -326,226 -532,226 -166,0 -308,-34 -452,-118l0 -345c116,79 262,154 406,154 300,0 479,-207 479,-500 0,-293 -185,-506 -485,-506 -134,0 -243,48 -328,145 -91,105 -138,255 -138,452l0 1364 -23 0c-165,0 -300,-134 -300,-300l0 -1116c0,-473 289,-856 787,-856 245,0 445,84 596,253 142,158 213,357 213,598 0,214 -74,397 -223,548zm-6833 195c-315,0 -472,-214 -472,-514l0 -1136c0,-165 134,-300 300,-300l23 0 0 388 544 0 0 310 -544 0 0 773c0,132 59,169 184,169l360 0 0 309 -395 0zm1872 -197c-159,153 -351,229 -573,229 -220,0 -411,-77 -570,-229 -160,-153 -239,-348 -239,-583 0,-458 350,-812 809,-812 220,0 411,77 571,231 161,154 241,349 241,581 0,235 -80,430 -239,583zm1506 -988c-47,79 -84,136 -110,171 -28,37 -56,67 -84,88 224,72 307,228 307,459l0 468 -23 0c-166,0 -300,-134 -300,-300l0 -137c0,-150 -67,-251 -226,-251l-293 0 0 688 -23 0c-166,0 -300,-134 -300,-300l0 -1662c0,-165 134,-300 300,-300l23 0 0 1261 95 0c105,0 174,-36 213,-103l271 -457 367 0 -219 376zm1663 988c-159,153 -351,229 -573,229 -220,0 -410,-77 -570,-229 -160,-153 -239,-348 -239,-583 0,-458 350,-812 809,-812 220,0 411,77 571,231 161,154 241,349 241,581 0,235 -80,430 -239,583zm-233 -946c-89,-93 -202,-140 -340,-140 -297,0 -474,216 -474,503 0,283 182,503 474,503 293,0 474,-220 474,-503 0,-150 -45,-270 -134,-363zm-3170 0c-89,-93 -202,-140 -340,-140 -297,0 -474,216 -474,503 0,283 182,503 474,503 292,0 474,-220 474,-503 0,-150 -45,-270 -134,-363zm8684 937c-148,159 -338,238 -569,238 -243,0 -442,-84 -593,-253 -142,-160 -213,-359 -213,-598 0,-422 326,-774 754,-774 165,0 309,35 454,114l0 349c-116,-79 -262,-154 -406,-154 -300,0 -479,207 -479,500 0,289 189,506 485,506 134,0 244,-50 333,-151 88,-101 133,-248 133,-447l0 -1086c0,-165 134,-300 300,-300l23 0 0 1436c0,253 -73,460 -221,619zm910 -1540c-34,38 -82,55 -142,55 -111,0 -190,-82 -190,-191 0,-112 78,-188 190,-188 108,0 190,80 190,188 0,54 -16,99 -48,136zm1637 870c0,-127 -48,-228 -145,-304 -87,-69 -196,-103 -328,-103 -292,0 -479,228 -479,509 0,271 198,496 476,496 193,0 296,-113 406,-253l0 405c-56,42 -121,88 -186,115 -69,29 -152,43 -248,43 -464,0 -770,-384 -770,-828 0,-228 71,-416 213,-563 151,-156 350,-233 593,-233 461,0 790,264 790,742l0 850 -23 0c-165,0 -300,-134 -300,-300l0 -576zm-4411 -91c-41,-126 -92,-188 -209,-253 -279,-156 -554,-23 -682,252l891 1zm-246 994c-206,44 -408,10 -605,-100 -192,-107 -321,-267 -385,-478 -130,-427 137,-902 567,-1017 213,-57 417,-31 611,77 322,180 440,459 419,818l-1298 -3c19,147 110,261 238,332 129,72 248,90 359,55 122,-39 222,-138 303,-232l265 193c-108,193 -255,307 -472,354zm2717 -1588l322 0 0 1561 -23 0c-165,0 -300,-134 -300,-300l0 -1261z"/>
 </g>
</svg>
