<?xml version="1.0" encoding="UTF-8"?>
<!DOCTYPE svg PUBLIC "-//W3C//DTD SVG 1.1//EN" "http://www.w3.org/Graphics/SVG/1.1/DTD/svg11.dtd">
<!-- Creator: CorelDRAW X5 -->
<svg xmlns="http://www.w3.org/2000/svg" xml:space="preserve" width="270.29mm" height="28.9247mm" style="shape-rendering:geometricPrecision; text-rendering:geometricPrecision; image-rendering:optimizeQuality; fill-rule:evenodd; clip-rule:evenodd"
viewBox="0 0 27809 2976"
 xmlns:xlink="http://www.w3.org/1999/xlink">
 <defs>
  <style type="text/css">
   <![CDATA[
    .fil9 {fill:none}
    .fil8 {fill:#3CAF41}
    .fil3 {fill:#4A9E4B}
    .fil0 {fill:#4D4C4B}
    .fil1 {fill:#5FB74E}
    .fil2 {fill:#89C45F}
    .fil6 {fill:#EEEFEE}
    .fil5 {fill:#FCD066}
    .fil4 {fill:#FDF8B4}
    .fil7 {fill:#FEFEFE}
   ]]>
  </style>
 </defs>
 <g id="Layer_x0020_1">
  <metadata id="CorelCorpID_0Corel-Layer"/>
  <g id="_399027224">
   <g id="_397920840">
    <path class="fil0" d="M6546 687c140,-70 310,-108 465,-121l174 -15c191,-16 383,-6 574,-6l105 0 0 105c0,466 0,932 0,1398l0 54c0,481 -394,875 -875,875l-1762 0 0 -2430 105 0c191,0 383,-12 574,2l174 13c166,12 318,53 467,128l-1 -1z"/>
    <path class="fil1" d="M5332 650l0 1197 0 200 0 54 0 769 769 0 120 0 767 0c423,0 769,-346 769,-769l0 -54c0,-464 0,-915 0,-1398 -184,0 -379,-4 -565,6l-174 15c-171,21 -343,61 -475,137 -142,-82 -296,-122 -474,-142l-174 -13c-190,-9 -386,-2 -566,-2l1 -1z"/>
    <path class="fil2" d="M5550 2871l552 0 120 0 767 0c187,0 359,-68 494,-180 -156,-363 -517,-617 -937,-617 -487,0 -895,341 -996,798z"/>
    <path class="fil3" d="M6546 2871l453 -7c185,0 353,-65 485,-174 169,-140 276,-351 276,-589l0 -54c0,-464 0,-915 0,-1398 -184,0 -379,-4 -565,6l-174 15c-171,21 -343,61 -475,137l0 2064 -1 0z"/>
    <path class="fil1" d="M6546 2871l447 0c187,0 357,-68 491,-180 -155,-359 -523,-611 -937,-617l0 798 -1 0z"/>
    <path class="fil0" d="M7194 583c-33,-328 -310,-583 -646,-583 -336,0 -612,253 -651,579l174 13c30,-235 232,-417 476,-417 244,0 446,185 473,423l174 -15 0 0z"/>
    <path class="fil0" d="M6829 2175c-76,80 -152,161 -228,241l-56 60 -56 -60c-76,-80 -152,-161 -228,-241l-39 -41 28 -50c61,-105 175,-162 295,-162 119,0 234,57 295,162l28 50 -39 41z"/>
    <path class="fil4" d="M6773 2123c-76,80 -152,161 -228,241 -76,-81 -152,-161 -228,-241 48,-83 138,-123 228,-123 90,0 180,40 228,123z"/>
    <path class="fil5" d="M6773 2123c-76,80 -152,161 -228,241l0 -364c90,0 180,40 228,123z"/>
    <path class="fil0" d="M5976 952c340,0 616,276 616,616 0,340 -276,616 -616,616 -340,0 -616,-276 -616,-616 0,-340 276,-616 616,-616z"/>
    <path class="fil6" d="M5976 1057c282,0 512,229 512,512 0,282 -229,512 -512,512 -282,0 -512,-229 -512,-512 0,-282 229,-512 512,-512z"/>
    <path class="fil7" d="M5976 1057c233,0 430,156 492,369 -62,214 -258,369 -492,369 -233,0 -430,-156 -492,-369 62,-214 258,-369 492,-369z"/>
    <path class="fil0" d="M7114 952c340,0 616,276 616,616 0,340 -276,616 -616,616 -340,0 -616,-276 -616,-616 0,-340 276,-616 616,-616z"/>
    <path class="fil6" d="M7114 1057c282,0 512,229 512,512 0,282 -229,512 -512,512 -282,0 -512,-229 -512,-512 0,-282 229,-512 512,-512z"/>
    <path class="fil7" d="M7114 1057c233,0 430,156 492,369 -62,214 -258,369 -492,369 -233,0 -430,-156 -492,-369 62,-214 258,-369 492,-369z"/>
    <path class="fil0" d="M6039 1251c182,0 331,148 331,330 0,182 -148,331 -331,331 -182,0 -331,-148 -331,-331 0,-61 16,-117 46,-167 23,59 81,99 148,99 88,0 159,-71 159,-159 0,-39 -14,-76 -38,-103 5,0 11,0 16,0l1 0z"/>
    <path class="fil0" d="M7051 1251c182,0 331,148 331,330 0,182 -148,331 -331,331 -182,0 -330,-148 -330,-331 0,-61 16,-117 46,-167 23,59 81,99 148,99 88,0 159,-71 159,-159 0,-39 -14,-76 -38,-103 5,0 11,0 16,0l0 0z"/>
   </g>
   <path class="fil8" d="M16146 2092c-150,153 -330,229 -538,229 -168,0 -312,-34 -458,-119l0 -349c117,80 265,156 411,156 304,0 485,-210 485,-506 0,-297 -187,-512 -491,-512 -136,0 -246,49 -332,147 -92,106 -140,258 -140,458l0 1381 -23 0c-167,0 -304,-136 -304,-304l0 -1130c0,-479 293,-866 797,-866 248,0 450,85 603,256 144,160 216,361 216,605 0,217 -75,402 -226,555l0 1zm-6916 197c-319,0 -478,-217 -478,-520l0 -1150c0,-167 136,-304 304,-304l23 0 0 393 551 0 0 314 -551 0 0 782c0,134 60,171 186,171l364 0 0 313 -400 0 0 1zm1895 -199c-161,155 -355,232 -580,232 -223,0 -416,-78 -577,-232 -162,-155 -242,-352 -242,-590 0,-464 354,-822 819,-822 223,0 416,78 578,234 163,156 244,353 244,588 0,238 -81,435 -242,590zm1524 -1000c-48,80 -85,138 -111,173 -28,37 -57,68 -85,89 227,73 311,231 311,465l0 474 -23 0c-168,0 -304,-136 -304,-304l0 -139c0,-152 -68,-254 -229,-254l-297 0 0 696 -23 0c-168,0 -304,-136 -304,-304l0 -1682c0,-167 136,-304 304,-304l23 0 0 1276 96 0c106,0 176,-36 216,-104l274 -463 371 0 -222 381 2 -1zm1683 1000c-161,155 -355,232 -580,232 -223,0 -415,-78 -577,-232 -162,-155 -242,-352 -242,-590 0,-464 354,-822 819,-822 223,0 416,78 578,234 163,156 244,353 244,588 0,238 -81,435 -242,590zm-236 -958c-90,-94 -204,-142 -344,-142 -301,0 -480,219 -480,509 0,286 184,509 480,509 297,0 480,-223 480,-509 0,-152 -46,-273 -136,-367zm-3209 0c-90,-94 -204,-142 -344,-142 -301,0 -480,219 -480,509 0,286 184,509 480,509 296,0 480,-223 480,-509 0,-152 -46,-273 -136,-367zm8790 948c-150,161 -342,241 -576,241 -246,0 -447,-85 -600,-256 -144,-162 -216,-363 -216,-605 0,-427 330,-783 763,-783 167,0 313,35 460,115l0 353c-117,-80 -265,-156 -411,-156 -304,0 -485,210 -485,506 0,293 191,512 491,512 136,0 247,-51 337,-153 89,-102 135,-251 135,-452l0 -1099c0,-167 136,-304 304,-304l23 0 0 1454c0,256 -74,466 -224,627l-1 1zm921 -1559c-34,38 -83,56 -144,56 -112,0 -192,-83 -192,-193 0,-113 79,-190 192,-190 109,0 192,81 192,190 0,55 -16,100 -49,138zm1657 881c0,-129 -49,-231 -147,-308 -88,-70 -198,-104 -332,-104 -296,0 -485,231 -485,515 0,274 200,502 482,502 195,0 300,-114 411,-256l0 410c-57,43 -122,89 -188,116 -70,29 -154,44 -251,44 -470,0 -779,-389 -779,-838 0,-231 72,-421 216,-570 153,-158 354,-236 600,-236 467,0 800,267 800,751l0 860 -23 0c-167,0 -304,-136 -304,-304l0 -583 1 0zm-4465 -92c-41,-128 -93,-190 -212,-256 -282,-158 -561,-23 -690,255l902 1zm-249 1006c-209,45 -413,10 -612,-101 -194,-108 -325,-270 -390,-484 -132,-432 139,-913 574,-1029 216,-58 422,-31 618,78 326,182 445,465 424,828l-1314 -3c19,149 111,264 241,336 131,73 251,91 363,56 123,-39 225,-140 307,-235l268 195c-109,195 -258,311 -478,358l-2 1zm2750 -1607l326 0 0 1580 -23 0c-167,0 -304,-136 -304,-304l0 -1276 1 0z"/>
  </g>
  <rect class="fil9" y="1" width="27809" height="2974"/>
 </g>
</svg>
