<?xml version="1.0" encoding="UTF-8"?>
<!DOCTYPE svg PUBLIC "-//W3C//DTD SVG 1.1//EN" "http://www.w3.org/Graphics/SVG/1.1/DTD/svg11.dtd">
<!-- Creator: CorelDRAW X5 -->
<svg xmlns="http://www.w3.org/2000/svg" xml:space="preserve" width="246.609mm" height="36.0007mm" style="shape-rendering:geometricPrecision; text-rendering:geometricPrecision; image-rendering:optimizeQuality; fill-rule:evenodd; clip-rule:evenodd"
viewBox="0 0 25034 3655"
 xmlns:xlink="http://www.w3.org/1999/xlink">
 <defs>
  <style type="text/css">
   <![CDATA[
    .fil0 {fill:none}
    .fil1 {fill:#FEFEFE}
   ]]>
  </style>
 </defs>
 <g id="Layer_x0020_1">
  <metadata id="CorelCorpID_0Corel-Layer"/>
  <rect class="fil0" width="25034" height="3655"/>
  <g id="_620516128">
   <path class="fil1" d="M5257 1038c138,-69 305,-107 459,-120l172 -15c189,-16 377,-6 566,-6l104 0 0 104c0,460 0,919 0,1379l0 53c0,475 -388,863 -863,863l-1739 0 0 -2398 103 0c189,0 377,-12 566,2l172 13c164,12 313,52 460,126zm-1198 -38l0 1182 0 198 0 53 0 759 759 0 119 0 757 0c418,0 759,-342 759,-759l0 -53c0,-457 0,-903 0,-1379 -181,0 -373,-4 -557,6l-172 15c-169,21 -339,60 -468,134 -139,-81 -292,-121 -467,-140l-172 -13c-188,-9 -380,-2 -558,-2z"/>
   <path class="fil0" d="M4059 1000l0 1182 0 198 0 53 0 759 759 0 119 0 757 0c418,0 759,-342 759,-759l0 -53c0,-457 0,-903 0,-1379 -181,0 -373,-4 -557,6l-172 15c-169,20 -339,60 -468,134 -139,-81 -292,-121 -467,-140l-172 -13c-188,-9 -380,-2 -558,-2z"/>
   <path class="fil0" d="M4273 3192l544 0 119 0 757 0c185,0 355,-67 487,-178 -154,-358 -510,-609 -925,-609 -481,0 -882,337 -983,787z"/>
   <path class="fil0" d="M5256 3192l447 -7c183,0 349,-64 478,-171 167,-138 272,-346 272,-581l0 -53c0,-457 0,-903 0,-1379 -181,0 -373,-4 -557,6l-172 15c-169,20 -339,60 -468,134l0 2036z"/>
   <path class="fil0" d="M5256 3192l441 0c185,0 352,-67 484,-178 -152,-354 -516,-604 -925,-609l0 787z"/>
   <path class="fil1" d="M5896 935c-33,-323 -306,-575 -638,-575 -331,0 -604,250 -642,571l172 13c30,-232 228,-412 469,-412 241,0 440,182 466,417l172 -15z"/>
   <path class="fil1" d="M5536 2506c-75,79 -150,159 -225,238l-55 58 -55 -58c-75,-79 -150,-159 -225,-238l-39 -41 28 -49c60,-104 173,-160 290,-160 118,0 230,56 291,160l28 49 -39 41zm-55 -52c-75,79 -150,159 -225,238 -75,-79 -150,-159 -225,-238 47,-82 136,-122 225,-122 89,0 178,40 225,122z"/>
   <path class="fil1" d="M4694 1299c336,0 608,273 608,608 0,336 -272,608 -608,608 -336,0 -608,-272 -608,-608 0,-336 272,-608 608,-608zm0 104c279,0 505,226 505,505 0,279 -226,505 -505,505 -279,0 -505,-226 -505,-505 0,-279 226,-505 505,-505z"/>
   <path class="fil0" d="M4694 1402c279,0 505,226 505,505 0,279 -226,505 -505,505 -279,0 -505,-226 -505,-505 0,-279 226,-505 505,-505z"/>
   <path class="fil1" d="M5818 1299c336,0 608,273 608,608 0,336 -272,608 -608,608 -336,0 -608,-272 -608,-608 0,-336 272,-608 608,-608zm0 104c279,0 505,226 505,505 0,279 -226,505 -505,505 -279,0 -505,-226 -505,-505 0,-279 226,-505 505,-505z"/>
   <path class="fil0" d="M5818 1402c230,0 424,154 485,365 -61,210 -255,365 -485,365 -230,0 -424,-154 -485,-365 61,-211 255,-365 485,-365z"/>
   <path class="fil1" d="M4757 1593c180,0 326,146 326,326 0,180 -146,326 -326,326 -180,0 -326,-146 -326,-326 0,-60 16,-116 45,-165 23,58 80,98 146,98 87,0 157,-70 157,-157 0,-39 -14,-75 -38,-102 5,0 11,0 16,0z"/>
   <path class="fil1" d="M5754 1593c180,0 326,146 326,326 0,180 -146,326 -326,326 -180,0 -326,-146 -326,-326 0,-60 16,-116 45,-165 23,58 80,98 146,98 87,0 157,-70 157,-157 0,-39 -14,-75 -38,-102 5,0 11,0 16,0z"/>
   <path class="fil1" d="M14729 2423c-148,150 -326,226 -531,226 -166,0 -308,-34 -452,-118l0 -345c116,79 262,154 406,154 300,0 478,-206 478,-499 0,-293 -185,-505 -485,-505 -134,0 -243,48 -328,145 -91,105 -138,254 -138,452l0 1362 -23 0c-165,0 -299,-134 -299,-299l0 -1114c0,-473 289,-854 786,-854 245,0 444,84 595,252 142,157 212,357 212,597 0,214 -74,396 -223,547zm-6824 194c-315,0 -471,-214 -471,-513l0 -1134c0,-165 134,-299 299,-299l23 0 0 388 544 0 0 309 -544 0 0 772c0,131 59,168 184,168l360 0 0 309 -395 0zm1869 -197c-159,153 -350,229 -572,229 -220,0 -410,-76 -569,-229 -160,-153 -239,-348 -239,-582 0,-458 350,-811 808,-811 220,0 411,77 571,230 161,154 241,348 241,581 0,235 -80,429 -239,582zm1504 -987c-47,79 -84,136 -110,170 -28,37 -56,67 -84,88 224,72 307,227 307,458l0 468 -23 0c-165,0 -299,-134 -299,-299l0 -137c0,-149 -67,-251 -225,-251l-292 0 0 687 -23 0c-165,0 -299,-134 -299,-299l0 -1660c0,-165 134,-299 299,-299l23 0 0 1259 95 0c105,0 173,-36 213,-103l270 -456 367 0 -219 375zm1661 987c-159,153 -350,229 -572,229 -220,0 -410,-76 -569,-229 -159,-153 -239,-348 -239,-582 0,-458 350,-811 808,-811 220,0 411,77 571,230 160,154 241,348 241,581 0,235 -80,429 -239,582zm-232 -945c-89,-93 -201,-139 -340,-139 -296,0 -473,216 -473,502 0,282 182,502 473,502 292,0 473,-220 473,-502 0,-150 -45,-270 -134,-363zm-3166 0c-89,-93 -201,-139 -340,-139 -296,0 -473,216 -473,502 0,282 181,502 473,502 292,0 473,-220 473,-502 0,-150 -45,-270 -134,-363zm8672 936c-148,159 -338,238 -568,238 -243,0 -441,-84 -592,-252 -142,-159 -212,-359 -212,-597 0,-421 325,-773 753,-773 165,0 308,35 453,114l0 348c-116,-79 -262,-154 -406,-154 -300,0 -478,206 -478,499 0,289 189,505 485,505 134,0 244,-50 332,-151 88,-100 133,-248 133,-446l0 -1084c0,-165 134,-299 299,-299l22 0 0 1434c0,253 -73,459 -221,618zm909 -1538c-34,38 -82,55 -141,55 -110,0 -189,-82 -189,-191 0,-112 78,-188 189,-188 108,0 190,80 190,188 0,53 -16,99 -48,136zm1635 869c0,-127 -48,-227 -145,-303 -87,-68 -195,-103 -327,-103 -291,0 -478,228 -478,508 0,270 198,496 475,496 193,0 296,-113 406,-253l0 404c-56,42 -120,88 -186,114 -69,29 -152,43 -248,43 -463,0 -769,-384 -769,-827 0,-228 71,-416 213,-563 151,-155 349,-233 592,-233 460,0 789,264 789,741l0 849 -23 0c-165,0 -299,-134 -299,-299l0 -576zm-4405 -91c-41,-126 -92,-188 -209,-253 -279,-156 -553,-23 -681,252l890 1zm-246 993c-206,44 -407,10 -604,-100 -192,-107 -321,-267 -385,-477 -130,-426 137,-901 566,-1016 213,-57 417,-31 611,77 322,180 439,458 419,817l-1297 -3c19,146 110,261 237,332 129,72 248,89 358,55 122,-38 222,-138 302,-231l264 193c-108,193 -255,307 -472,353zm2714 -1586l322 0 0 1559 -23 0c-165,0 -299,-134 -299,-299l0 -1260z"/>
  </g>
 </g>
</svg>
