<?xml version="1.0" encoding="UTF-8"?>
<!DOCTYPE svg PUBLIC "-//W3C//DTD SVG 1.1//EN" "http://www.w3.org/Graphics/SVG/1.1/DTD/svg11.dtd">
<!-- Creator: CorelDRAW X5 -->
<svg xmlns="http://www.w3.org/2000/svg" xml:space="preserve" width="270.29mm" height="28.9056mm" style="shape-rendering:geometricPrecision; text-rendering:geometricPrecision; image-rendering:optimizeQuality; fill-rule:evenodd; clip-rule:evenodd"
viewBox="0 0 27029 2891"
 xmlns:xlink="http://www.w3.org/1999/xlink">
 <defs>
  <style type="text/css">
   <![CDATA[
    .fil0 {fill:none}
    .fil1 {fill:#FEFEFE;fill-rule:nonzero}
    .fil2 {fill:#FEFEFE;fill-rule:nonzero;fill-opacity:0.600000}
   ]]>
  </style>
   <mask id="id0">
  <linearGradient id="id1" gradientUnits="userSpaceOnUse" x1="6714.99" y1="2304.64" x2="8962.91" y2="1059.98">
   <stop offset="0" style="stop-opacity:1; stop-color:white"/>
   <stop offset="1" style="stop-opacity:0; stop-color:white"/>
  </linearGradient>
    <rect style="fill:url(#id1)" x="6942" y="470" width="1794" height="2424"/>
   </mask>
 </defs>
 <g id="Layer_x0020_1">
  <metadata id="CorelCorpID_0Corel-Layer"/>
  <rect class="fil0" width="27029" height="2891"/>
  <polygon class="fil1" points="9680,159 10147,159 10147,2404 10951,2404 10951,2847 9682,2847 "/>
  <path class="fil1" d="M12031 832c247,-3 481,110 633,304l0 -264 435 0 0 1978 -435 0 0 -264c-152,195 -386,308 -633,304 -543,0 -954,-464 -954,-1030 0,-566 412,-1029 954,-1029zm79 396l0 0c-352,0 -586,277 -586,632 0,355 237,633 586,633 348,0 586,-277 586,-633 0,-356 -233,-632 -586,-632z"/>
  <polygon class="fil1" points="13438,2507 14476,1268 13454,1268 13454,872 15038,872 15038,1221 14004,2455 15061,2455 15061,2850 13438,2850 "/>
  <path class="fil1" d="M16168 832c247,-3 481,110 633,304l0 -264 435 0 0 1978 -435 0 0 -264c-152,195 -386,308 -633,304 -543,0 -953,-464 -953,-1030 0,-566 411,-1029 953,-1029zm79 396l0 0c-352,0 -586,277 -586,632 0,355 237,633 586,633 348,0 586,-277 586,-633 0,-356 -233,-632 -586,-632z"/>
  <path class="fil1" d="M18480 832c247,-3 481,109 632,304l0 -1137 435 0 0 2850 -435 0 0 -264c-151,195 -386,308 -632,304 -543,0 -954,-464 -954,-1030 0,-566 412,-1029 954,-1029zm79 396l0 0c-352,0 -586,277 -586,632 0,355 238,633 586,633 347,0 586,-277 586,-633 0,-356 -233,-632 -586,-632z"/>
  <path class="fil1" d="M20790 832c247,-3 481,109 632,304l0 -264 434 0 0 1978 -436 0 0 -264c-151,195 -386,308 -632,304 -543,0 -954,-464 -954,-1030 0,-566 414,-1029 956,-1029zm79 396l0 0c-352,0 -586,277 -586,632 0,355 238,633 586,633 347,0 586,-277 586,-633 0,-356 -233,-632 -586,-632z"/>
  <path class="fil2" d="M6953 2891c-25,0 -50,-6 -72,-19 -188,-109 -1583,-983 -1636,-1010 -40,-19 -67,-57 -72,-101l0 -1227c-1,-46 22,-89 60,-114l10 -6c135,-84 587,-359 658,-399 16,-10 35,-15 54,-15 18,0 35,5 51,13 0,0 632,412 729,449 68,31 142,47 216,45 85,2 168,-19 242,-59 95,-50 698,-433 705,-433 15,-9 33,-14 51,-14 19,0 38,5 54,15 82,45 642,388 666,403 39,24 63,67 63,113l0 1227c-4,44 -32,83 -72,101 -53,29 -1443,903 -1635,1010 -22,13 -47,20 -72,20l0 0z"/>
  <path class="fil1" style="mask:url(#id0)" d="M6946 2891l7 0c25,0 50,-6 72,-19 188,-109 1582,-983 1635,-1010 40,-18 68,-57 72,-101l0 -1227c0,-21 -4,-41 -14,-60l-1773 973 0 1443z"/>
  <path class="fil1" d="M6940 2873l-7 0c-25,0 -50,-6 -71,-19 -186,-108 -1566,-973 -1618,-999 -40,-18 -67,-56 -71,-100l0 -1214c0,-21 4,-41 14,-59l1754 963 0 1428z"/>
 </g>
</svg>
