<?xml version="1.0" encoding="UTF-8"?>
<!DOCTYPE svg PUBLIC "-//W3C//DTD SVG 1.1//EN" "http://www.w3.org/Graphics/SVG/1.1/DTD/svg11.dtd">
<!-- Creator: CorelDRAW X5 -->
<svg xmlns="http://www.w3.org/2000/svg" xml:space="preserve" width="28.0246mm" height="31.4476mm" style="shape-rendering:geometricPrecision; text-rendering:geometricPrecision; image-rendering:optimizeQuality; fill-rule:evenodd; clip-rule:evenodd"
viewBox="0 0 2802 3145"
 xmlns:xlink="http://www.w3.org/1999/xlink"
 xmlns:svg="http://www.w3.org/2000/svg">
 <defs>
  <style type="text/css">
   <![CDATA[
    .fil0 {fill:black;fill-rule:nonzero}
    .fil2 {fill:#E8AE0F;fill-rule:nonzero}
    .fil1 {fill:white;fill-rule:nonzero}
   ]]>
  </style>
 </defs>
 <g id="Layer_x0020_1">
  <metadata id="CorelCorpID_0Corel-Layer"/>
 </g>
 <g id="svg2">
  <metadata id="CorelCorpID_1Corel-Layer"/>
  <path class="fil0" d="M1401 0c-97,85 -250,184 -514,184 -169,0 -336,-52 -336,-52 -79,94 -232,279 -327,372 -80,79 -152,132 -223,155 46,76 112,183 112,423 0,254 -89,486 -89,861 0,471 122,661 296,825 149,132 349,204 581,246 126,24 285,42 366,62 64,17 114,33 134,70 20,-37 70,-53 134,-70 81,-20 240,-37 366,-62 232,-42 433,-114 581,-246 175,-163 296,-353 296,-825 0,-375 -89,-607 -89,-861 0,-240 66,-347 112,-423 -71,-23 -143,-75 -223,-155 -95,-93 -248,-278 -327,-372 0,0 -167,52 -336,52 -264,0 -418,-99 -514,-184z"/>
  <path class="fil1" d="M1401 51c-103,84 -262,173 -514,173 -139,0 -270,-32 -322,-47 -82,98 -220,264 -313,355 -67,66 -130,116 -194,146 44,77 94,195 94,404 0,263 -89,492 -89,861 0,464 113,636 283,795 141,125 334,196 562,236 0,0 0,0 1,0 123,24 281,41 368,62 0,0 0,0 1,0 33,8 63,17 90,30 12,6 23,12 34,21 11,-8 22,-15 34,-21 27,-13 58,-21 90,-30 0,0 0,0 1,0 87,-21 245,-38 368,-62 0,0 0,0 1,0 228,-41 421,-112 562,-236 170,-159 283,-331 283,-795 0,-369 -89,-598 -89,-861 0,-208 51,-326 94,-404 -64,-30 -127,-80 -194,-146l0 0c-93,-91 -231,-257 -313,-355 -52,14 -184,47 -322,47 -252,0 -412,-89 -514,-173l0 0z"/>
  <path class="fil0" d="M1401 147c-114,79 -280,154 -514,154 -116,0 -225,-21 -294,-37 -83,99 -200,238 -287,323 -49,48 -97,90 -147,123 37,85 71,205 71,372 0,282 -89,504 -89,861 0,450 97,588 258,738 126,111 304,178 524,218 1,0 1,0 2,0 118,23 272,39 371,63 1,0 1,0 2,0 34,9 68,18 103,34 1,0 1,1 2,1 1,0 1,-1 2,-1 36,-17 70,-26 103,-34 1,0 1,0 2,0 99,-24 253,-40 371,-63 1,0 1,0 2,0 220,-39 398,-107 524,-218 161,-150 258,-288 258,-738 0,-357 -89,-579 -89,-861 0,-167 34,-287 71,-372 -50,-33 -98,-74 -147,-123 -88,-86 -204,-224 -287,-323 -70,17 -179,37 -294,37 -234,0 -401,-75 -514,-154l0 0z"/>
  <path class="fil2" d="M1401 214c-120,76 -290,143 -514,143 -104,0 -202,-16 -274,-31 -80,96 -186,220 -269,301 -39,39 -78,73 -119,104 32,88 59,203 59,351 0,295 -89,513 -89,861 0,440 86,553 240,697 115,101 282,166 496,204 1,0 2,0 2,0 115,22 266,37 374,63 1,0 2,0 3,1 28,7 58,15 91,29 33,-13 63,-21 91,-29 1,0 2,0 3,-1 108,-26 259,-41 374,-63 1,0 2,0 2,0 214,-38 381,-103 496,-204 154,-144 240,-257 240,-697 0,-348 -89,-566 -89,-861 0,-148 27,-263 59,-351 -41,-30 -80,-65 -119,-104 -83,-81 -189,-205 -269,-301 -72,15 -170,31 -274,31 -224,0 -394,-67 -514,-143l0 0zm0 48l0 0c125,73 296,136 514,136 97,0 187,-13 258,-27 78,93 175,207 256,286 33,32 65,62 99,89 -29,88 -52,200 -52,336 0,247 59,436 81,681l-2044 -1257c40,-46 80,-92 115,-135 71,14 161,27 258,27 218,0 390,-63 514,-136zm-941 303l0 0 2104 1294c1,27 2,55 2,84 0,432 -77,527 -226,666 -9,8 -19,16 -28,23l-2015 -1235c16,-100 28,-202 28,-316 0,-136 -23,-248 -52,-336 34,-27 67,-57 99,-89 28,-27 57,-58 88,-91zm-177 916l0 0 1956 1199c-98,56 -224,97 -376,124 -1,0 -2,0 -3,1 -112,22 -261,36 -376,64 -1,0 -2,1 -3,1 -25,6 -51,13 -81,24 -30,-11 -56,-18 -81,-24 -1,0 -2,-1 -3,-1 -115,-28 -264,-42 -376,-64 -1,0 -2,0 -3,-1 -210,-38 -369,-101 -476,-195 -149,-139 -226,-234 -226,-666 0,-178 24,-322 48,-462z"/>
  <polygon class="fil2" points="1245,1876 1245,1150 1345,1212 1345,1488 1580,1632 1580,1356 1681,1418 1681,2144 1580,2082 1580,1762 1345,1618 1345,1938 "/>
  <polygon class="fil2" points="1927,1570 1927,2166 2201,2334 2201,2464 1826,2234 1826,1508 "/>
  <polygon class="fil2" points="652,1511 652,785 751,846 982,1403 982,988 1083,1050 1083,1776 985,1716 753,1154 753,1573 "/>
 </g>
</svg>
