<?xml version="1.0" encoding="utf-8"?>
<!-- Generator: Adobe Illustrator 24.2.3, SVG Export Plug-In . SVG Version: 6.00 Build 0)  -->
<!DOCTYPE svg PUBLIC "-//W3C//DTD SVG 1.1//EN" "http://www.w3.org/Graphics/SVG/1.1/DTD/svg11.dtd" [
	<!ENTITY ns_extend "http://ns.adobe.com/Extensibility/1.0/">
	<!ENTITY ns_ai "http://ns.adobe.com/AdobeIllustrator/10.0/">
	<!ENTITY ns_graphs "http://ns.adobe.com/Graphs/1.0/">
	<!ENTITY ns_vars "http://ns.adobe.com/Variables/1.0/">
	<!ENTITY ns_imrep "http://ns.adobe.com/ImageReplacement/1.0/">
	<!ENTITY ns_sfw "http://ns.adobe.com/SaveForWeb/1.0/">
	<!ENTITY ns_custom "http://ns.adobe.com/GenericCustomNamespace/1.0/">
	<!ENTITY ns_adobe_xpath "http://ns.adobe.com/XPath/1.0/">
]>
<svg version="1.1"
	 id="svg8" xmlns:x="&ns_extend;" xmlns:i="&ns_ai;" xmlns:graph="&ns_graphs;" xmlns:cc="http://creativecommons.org/ns#" xmlns:dc="http://purl.org/dc/elements/1.1/" xmlns:inkscape="http://www.inkscape.org/namespaces/inkscape" xmlns:rdf="http://www.w3.org/1999/02/22-rdf-syntax-ns#" xmlns:sodipodi="http://sodipodi.sourceforge.net/DTD/sodipodi-0.dtd" xmlns:svg="http://www.w3.org/2000/svg"
	 xmlns="http://www.w3.org/2000/svg" xmlns:xlink="http://www.w3.org/1999/xlink" x="0px" y="0px" width="96.7px" height="89.1px"
	 viewBox="0 0 96.7 89.1" style="enable-background:new 0 0 96.7 89.1;" xml:space="preserve">
<style type="text/css">
	.st0{fill:url(#path390_1_);}
	.st1{fill:url(#path392_1_);}
	.st2{fill:url(#path394_1_);}
	.st3{fill:#101E4B;}
	.st4{fill:url(#path398_1_);}
	.st5{fill:url(#path400_1_);}
	.st6{fill:url(#path402_1_);}
	.st7{fill:url(#path404_1_);}
	.st8{fill:url(#path406_1_);}
	.st9{fill:url(#path408_1_);}
	.st10{fill:url(#path410_1_);}
	.st11{fill:url(#path412_1_);}
	.st12{fill:url(#path414_1_);}
	.st13{fill:url(#path416_1_);}
	.st14{fill:url(#path418_1_);}
	.st15{fill:url(#path420_1_);}
	.st16{fill:url(#path422_1_);}
	.st17{fill:url(#path424_1_);}
	.st18{fill:none;stroke:#F2F1F0;stroke-width:1.7864;stroke-miterlimit:43.8743;}
	.st19{fill:url(#path428_1_);}
	.st20{fill:url(#path430_1_);}
	.st21{fill:url(#path432_1_);}
	.st22{fill:url(#path434_1_);}
	.st23{fill:url(#path436_1_);}
	.st24{fill:url(#path438_1_);}
	.st25{fill:url(#path440_1_);}
	.st26{fill:url(#path442_1_);}
	.st27{fill:url(#path444_1_);}
	.st28{fill:url(#path446_1_);}
	.st29{fill:url(#path448_1_);}
	.st30{fill:url(#path450_1_);}
	.st31{fill:url(#path452_1_);}
	.st32{fill:url(#path454_1_);}
	.st33{fill:#ED5250;}
	.st34{fill:#EC643E;}
	.st35{fill:#F18117;}
	.st36{fill:url(#path466_1_);}
	.st37{fill:url(#path468_1_);}
	.st38{fill:url(#path470_1_);}
	.st39{fill:url(#path472_1_);}
	.st40{fill:url(#path474_1_);}
	.st41{fill:url(#path476_1_);}
	.st42{fill:url(#path478_1_);}
	.st43{fill:#CC320A;}
	.st44{fill:url(#path504_1_);}
	.st45{fill:url(#path506_1_);}
	.st46{fill:url(#path508_1_);}
	.st47{fill:url(#path510_1_);}
	.st48{fill:url(#path512_1_);}
	.st49{fill:url(#path514_1_);}
	.st50{fill:url(#path516_1_);}
	.st51{fill:url(#path518_1_);}
	.st52{fill:url(#path520_1_);}
	.st53{fill:url(#path522_1_);}
	.st54{fill:url(#path524_1_);}
	.st55{fill:url(#path526_1_);}
</style>
<metadata  id="metadata5">
	<rdf:RDF>
		<cc:Work  rdf:about="">
			<dc:format>image/svg+xml</dc:format>
			<dc:type  rdf:resource="http://purl.org/dc/dcmitype/StillImage"></dc:type>
			<dc:title></dc:title>
		</cc:Work>
	</rdf:RDF>
	<sfw  xmlns="&ns_sfw;">
		<slices></slices>
		<sliceSourceBounds  bottomLeftOrigin="true" height="89.1" width="96.7" x="-48.3" y="-44.6"></sliceSourceBounds>
	</sfw>
</metadata>
<sodipodi:namedview  bordercolor="#666666" borderopacity="1.0" id="base" inkscape:current-layer="layer1" inkscape:cx="534.09302" inkscape:cy="456.287" inkscape:document-units="mm" inkscape:pageopacity="0.0" inkscape:pageshadow="2" inkscape:window-height="1017" inkscape:window-maximized="1" inkscape:window-width="1920" inkscape:window-x="-8" inkscape:window-y="-8" inkscape:zoom="0.7" pagecolor="#ffffff" showgrid="false" units="px">
	</sodipodi:namedview>
<linearGradient id="path390_1_" gradientUnits="userSpaceOnUse" x1="-321.264" y1="-20.4979" x2="-320.652" y2="-19.1585" gradientTransform="matrix(8.9317 0 0 -8.9317 2926.5049 -173.1283)">
	<stop  offset="0.1125" style="stop-color:#2F9DDD"/>
	<stop  offset="0.385" style="stop-color:#214A99"/>
	<stop  offset="0.5475" style="stop-color:#182D69"/>
	<stop  offset="0.7575" style="stop-color:#182B66"/>
	<stop  offset="0.9" style="stop-color:#101E4B"/>
	<stop  offset="1" style="stop-color:#131636"/>
</linearGradient>
<path id="path390" inkscape:connector-curvature="0" class="st0" d="M55,11.7c0-0.2,0.1-2.3,2.3-2.5c2.1-0.3,4.2,0.1,4.2,0.1
	l1.6-4.5c0,0,1.6-3.7,1.5-3.7c-0.1,0-3.2,0.3-3.2,0.3l-6.1,3.4L55,11.7z"/>
<linearGradient id="path392_1_" gradientUnits="userSpaceOnUse" x1="-325.5326" y1="-22.4972" x2="-324.8839" y2="-19.6865" gradientTransform="matrix(8.9317 0 0 -8.9317 2926.5049 -173.1283)">
	<stop  offset="0.1125" style="stop-color:#2F9DDD"/>
	<stop  offset="0.5475" style="stop-color:#182D69"/>
	<stop  offset="0.7575" style="stop-color:#182B66"/>
	<stop  offset="0.9" style="stop-color:#101E4B"/>
	<stop  offset="1" style="stop-color:#131636"/>
</linearGradient>
<path id="path392" inkscape:connector-curvature="0" class="st1" d="M27.1,8.7c-0.1,0-3.5-8.2-3.5-8.2s-0.3,0-1.1,0.1
	c-0.8,0.1-7.4,5.8-7.7,8.2c-0.3,2.4,3.4,7.6,3.9,8.4c0.4,0.8,2.6,4.8,1.5,6.8c-1.1,2-6.5,3.8-6.5,3.8l0.3,1.9l1.6,3.5l9.6-1.2l2-2.2
	c0,0,0-6.3-1-8.1c-1.1-1.8-2.2-3.7-3.6-6.3c-1.4-2.6-0.6-4.1,1.1-4.9c1.6-0.8,3.6-1.4,3.6-1.4V8.7z"/>
<linearGradient id="path394_1_" gradientUnits="userSpaceOnUse" x1="-324.254" y1="-21.4237" x2="-323.6517" y2="-23.4159" gradientTransform="matrix(8.9317 0 0 -8.9317 2926.5049 -173.1283)">
	<stop  offset="0.1125" style="stop-color:#2F9DDD"/>
	<stop  offset="0.385" style="stop-color:#214A99"/>
	<stop  offset="0.5475" style="stop-color:#182D69"/>
	<stop  offset="0.7575" style="stop-color:#182B66"/>
	<stop  offset="0.9" style="stop-color:#101E4B"/>
	<stop  offset="1" style="stop-color:#131636"/>
</linearGradient>
<path id="path394" inkscape:connector-curvature="0" class="st2" d="M33.7,21h-2.5v8.4h2.5V21z"/>
<path id="path396" inkscape:connector-curvature="0" class="st3" d="M53.9,12.7c1.7,0,1.7-2.6,0-2.6C52.3,10.1,52.3,12.7,53.9,12.7z
	"/>
<linearGradient id="path398_1_" gradientUnits="userSpaceOnUse" x1="-320.7085" y1="-21.8432" x2="-317.9789" y2="-19.9614" gradientTransform="matrix(8.9317 0 0 -8.9317 2926.5049 -173.1283)">
	<stop  offset="0.1125" style="stop-color:#2F9DDD"/>
	<stop  offset="0.385" style="stop-color:#214A99"/>
	<stop  offset="0.5475" style="stop-color:#182D69"/>
	<stop  offset="0.7575" style="stop-color:#182B66"/>
	<stop  offset="0.9" style="stop-color:#101E4B"/>
	<stop  offset="1" style="stop-color:#131636"/>
</linearGradient>
<path id="path398" inkscape:connector-curvature="0" class="st4" d="M69.7,10.1c0.1,0,1.7-1.1,1.7-1.1l0,5l5.1,0l0.1,4.8l-2.9,3.4
	l-6.2-0.1l-0.4-4.7l-2.7,4.6l-2.3,0l2.3-5.9l1.6-5.2L69.7,10.1z"/>
<linearGradient id="path400_1_" gradientUnits="userSpaceOnUse" x1="-324.2063" y1="-20.6919" x2="-323.577" y2="-19.7074" gradientTransform="matrix(8.9317 0 0 -8.9317 2926.5049 -173.1283)">
	<stop  offset="0.1125" style="stop-color:#2F9DDD"/>
	<stop  offset="0.385" style="stop-color:#214A99"/>
	<stop  offset="0.5475" style="stop-color:#182D69"/>
	<stop  offset="0.7575" style="stop-color:#182B66"/>
	<stop  offset="0.9" style="stop-color:#101E4B"/>
	<stop  offset="1" style="stop-color:#131636"/>
</linearGradient>
<path id="path400" inkscape:connector-curvature="0" class="st5" d="M36.5,4.9l-5-2.6l-0.4,7.3c0,0,0,0,0.1,0v5.7h2.4V9.3
	c0.2,0,0.4,0,0.6,0c1.3,0.2,2.5,1.5,2.5,1.5L36.5,4.9z"/>
<linearGradient id="path402_1_" gradientUnits="userSpaceOnUse" x1="-325.2628" y1="-20.0618" x2="-325.9682" y2="-23.8893" gradientTransform="matrix(8.9317 0 0 -8.9317 2926.5049 -173.1283)">
	<stop  offset="0.1125" style="stop-color:#2F9DDD"/>
	<stop  offset="0.385" style="stop-color:#214A99"/>
	<stop  offset="0.5475" style="stop-color:#182D69"/>
	<stop  offset="0.7575" style="stop-color:#182B66"/>
	<stop  offset="0.9" style="stop-color:#101E4B"/>
	<stop  offset="1" style="stop-color:#131636"/>
</linearGradient>
<path id="path402" inkscape:connector-curvature="0" class="st6" d="M23.6,0.5c0-0.1-0.1-0.2-0.3-0.1c-0.6,0.1-2.7,0.6-5,2.1
	c-2.8,1.7-4.4,4.2-4.5,7.4c-0.1,3.2,0.9,4.4,2.2,6.5c1.3,2.1,2.5,3.3,3.2,4.9c0.6,1.6,0.5,2.9-0.8,3.9C17,26.2,15.6,27,14.8,27
	c-0.8,0.1-1.1,0.1-1.1,0.1s0.1,0.3,0,0.3c-0.1,0.1,2.1,4.7,2.1,4.7s2.6-0.5,5.1-2.4c2.5-1.8,4.4-4.3,4.3-8.1c-0.1-3.8-3.7-7-4.5-8
	c-0.8-1.1-1.8-2.7-1.3-5c0.4-2.1,4.8-3.5,5.7-3.7c0.1,0,0.1-0.1,0.1-0.2L23.6,0.5z"/>
<linearGradient id="path404_1_" gradientUnits="userSpaceOnUse" x1="-323.7521" y1="-22.1219" x2="-324.2162" y2="-19.9176" gradientTransform="matrix(8.9317 0 0 -8.9317 2926.5049 -173.1283)">
	<stop  offset="0.1125" style="stop-color:#2F9DDD"/>
	<stop  offset="0.385" style="stop-color:#214A99"/>
	<stop  offset="0.5475" style="stop-color:#182D69"/>
	<stop  offset="0.7575" style="stop-color:#182B66"/>
	<stop  offset="0.9" style="stop-color:#101E4B"/>
	<stop  offset="1" style="stop-color:#131636"/>
</linearGradient>
<path id="path404" inkscape:connector-curvature="0" class="st7" d="M41,7.7c-0.5-6.2-6.3-7.3-7.8-7.3c-1.2,0-5-0.1-6.3-0.1
	c-0.3,0-0.5,0.2-0.5,0.5l-0.1,29.5L29,28c0,0,3,1.5,3.2,1.6c0.1,0-0.1-8-0.1-8s1.6,0,2.9-0.1c1.3-0.1,3-0.7,4.4-1.9
	c1.5-1.2,2-3.5,2-4.6C41.6,13,41.5,13.8,41,7.7L41,7.7z M34.8,12c-1,1.8-3.1,2.1-3.1,2.1s0.1-9.4,0.1-9.5c0,0,0.6-0.2,1.7,0.4
	c1.1,0.6,1.6,1.8,1.8,2.4C35.5,8.1,35.8,10.3,34.8,12z"/>
<radialGradient id="path406_1_" cx="-408.4577" cy="104.4328" r="9.668408e-02" gradientTransform="matrix(43.1358 0 0 -43.1358 17652.918 4514.1108)" gradientUnits="userSpaceOnUse">
	<stop  offset="0.1625" style="stop-color:#CFFEFF"/>
	<stop  offset="0.325" style="stop-color:#FFFFFF"/>
	<stop  offset="0.6175" style="stop-color:#E7D3DF"/>
	<stop  offset="0.8775" style="stop-color:#CFFEFF"/>
</radialGradient>
<path id="path406" inkscape:connector-curvature="0" class="st8" d="M31,4.1v10.4h5.6V4.1H31z M34.8,12c-1,1.8-2.8,1.9-2.8,1.9
	s-0.1-9.2-0.1-9.3c0,0,0.6-0.2,1.7,0.4c1.1,0.6,1.6,1.8,1.8,2.4C35.5,8.1,35.8,10.3,34.8,12L34.8,12z"/>
<linearGradient id="path408_1_" gradientUnits="userSpaceOnUse" x1="-321.4401" y1="-22.6081" x2="-320.4781" y2="-18.9105" gradientTransform="matrix(8.9317 0 0 -8.9317 2926.5049 -173.1283)">
	<stop  offset="0.1125" style="stop-color:#2F9DDD"/>
	<stop  offset="0.385" style="stop-color:#214A99"/>
	<stop  offset="0.5475" style="stop-color:#182D69"/>
	<stop  offset="0.7575" style="stop-color:#182B66"/>
	<stop  offset="0.9" style="stop-color:#101E4B"/>
	<stop  offset="1" style="stop-color:#131636"/>
</linearGradient>
<path id="path408" inkscape:connector-curvature="0" class="st9" d="M54.7,2.4c-0.1,0.1-1.5,1.7-2.7,4.3c-1.2,2.7-1.8,6.2-1.8,8.9
	c0,2.7,0.4,6.3,0.9,8.4c1.1,4.6,3.4,4.8,3.4,4.8l9,0.8l1.3-1c0,0-0.4,0.3-0.5,0.3s-1.2-3.5-1.2-3.5s-0.9,0.6-2.6,0.3
	c-1.7-0.3-2.7-1-3.6-4.4c-1-3.4-0.9-9.8-0.4-12.1c0.5-2.3,1.5-4.6,3-5c1.5-0.4,3.2,0.5,3.2,0.5l1.6-3.6c0,0-1.5-1.1-4.7-0.9
	C56.6,0.4,55.2,2,54.7,2.4L54.7,2.4z"/>
<linearGradient id="path410_1_" gradientUnits="userSpaceOnUse" x1="-320.6357" y1="-20.8596" x2="-318.5852" y2="-18.4499" gradientTransform="matrix(8.9317 0 0 -8.9317 2926.5049 -173.1283)">
	<stop  offset="0.1125" style="stop-color:#2F9DDD"/>
	<stop  offset="0.385" style="stop-color:#214A99"/>
	<stop  offset="0.5475" style="stop-color:#182D69"/>
	<stop  offset="0.7575" style="stop-color:#182B66"/>
	<stop  offset="0.9" style="stop-color:#101E4B"/>
	<stop  offset="1" style="stop-color:#131636"/>
</linearGradient>
<path id="path410" inkscape:connector-curvature="0" class="st10" d="M70.4,9.4C70.4,9.4,70.4,9.4,70.4,9.4c0.5,0,3.3,0.1,3.3,0.1
	L76.6,5l-2-4.3c0,0-9.1-0.2-9.1-0.2c0.1,0,3.2,3.7,3.2,3.7L70.4,9.4z"/>
<linearGradient id="path412_1_" gradientUnits="userSpaceOnUse" x1="-320.2781" y1="-22.2124" x2="-320.1982" y2="-20.667" gradientTransform="matrix(8.9317 0 0 -8.9317 2926.5049 -173.1283)">
	<stop  offset="0.385" style="stop-color:#214A99"/>
	<stop  offset="0.5475" style="stop-color:#182D69"/>
	<stop  offset="0.7575" style="stop-color:#182B66"/>
	<stop  offset="0.9" style="stop-color:#101E4B"/>
	<stop  offset="1" style="stop-color:#131636"/>
</linearGradient>
<path id="path412" inkscape:connector-curvature="0" class="st11" d="M67.3,29.8h-2.7L64.4,22l2.8-5.5L67.3,29.8z"/>
<radialGradient id="path414_1_" cx="-410.6868" cy="123.1674" r="9.668203e-02" gradientTransform="matrix(461.6845 0 0 -461.6845 189653.0156 56897.4258)" gradientUnits="userSpaceOnUse">
	<stop  offset="0.1625" style="stop-color:#CFFEFF"/>
	<stop  offset="0.325" style="stop-color:#FFFFFF"/>
	<stop  offset="0.6175" style="stop-color:#E7D3DF"/>
	<stop  offset="0.8775" style="stop-color:#CFFEFF"/>
</radialGradient>
<path id="path414" inkscape:connector-curvature="0" class="st12" d="M24.8,4.6c0.1,0-1.3-4.2-1.3-4.2s-1.7,0.2-4.5,1.7
	c-2.8,1.5-4.7,4-5,7.4c-0.3,3.4,1.5,5.5,2.2,6.7c0.7,1.2,2.3,2.8,2.8,3.8c0.5,1.1,1.2,2.3,0.5,3.5c-0.5,0.9-1.5,2.3-2.4,2.7
	c-0.9,0.4-1.6,0.8-2.2,0.9c-0.6,0.1-0.8,0.2-0.8,0.2l1.8,4.3c0,0,2.6-0.8,4.3-1.8c1.7-1,4.2-3.1,4.5-6.2c0.3-3.1-0.3-4.1-0.9-5.2
	c-0.6-1.1-3.2-4.5-3.9-5.6c-0.7-1.1-1.1-2.8-0.6-4.5C19.5,6.7,21.9,5.4,24.8,4.6L24.8,4.6z"/>
<linearGradient id="path416_1_" gradientUnits="userSpaceOnUse" x1="-323.3088" y1="-21.033" x2="-321.8663" y2="-21.033" gradientTransform="matrix(8.9317 0 0 -8.9317 2926.5049 -173.1283)">
	<stop  offset="0.1125" style="stop-color:#2F9DDD"/>
	<stop  offset="0.385" style="stop-color:#214A99"/>
	<stop  offset="0.5475" style="stop-color:#182D69"/>
	<stop  offset="0.7575" style="stop-color:#182B66"/>
	<stop  offset="0.9" style="stop-color:#101E4B"/>
	<stop  offset="1" style="stop-color:#131636"/>
</linearGradient>
<path id="path416" inkscape:connector-curvature="0" class="st13" d="M50.2,28.5c0.1,0,1.5-0.2,1.5-0.2L46.6,0h-2.9l-4.8,28.6
	l2.3,0.9L50.2,28.5z"/>
<radialGradient id="path418_1_" cx="-410.6861" cy="123.1662" r="9.668192e-02" gradientTransform="matrix(461.2406 0 0 -461.2406 189470.3594 56842.1523)" gradientUnits="userSpaceOnUse">
	<stop  offset="0.1625" style="stop-color:#CFFEFF"/>
	<stop  offset="0.325" style="stop-color:#FFFFFF"/>
	<stop  offset="0.6175" style="stop-color:#E7D3DF"/>
	<stop  offset="0.8775" style="stop-color:#CFFEFF"/>
</radialGradient>
<path id="path418" inkscape:connector-curvature="0" class="st14" d="M43.8,0.1c0.1,0,2.7,0,2.7,0L51.3,28c0,0-2.8-0.2-2.9-0.1
	c-0.1,0-2.5,0.2-2.5,0.2L45.1,15l-0.5,13.2c0,0-2.7-0.6-2.7-0.6c-0.1,0-2.9,0.7-2.9,0.7L43.8,0.1z"/>
<radialGradient id="path420_1_" cx="-410.6861" cy="123.1662" r="9.668204e-02" gradientTransform="matrix(461.2406 0 0 -461.2406 189470.3594 56842.1523)" gradientUnits="userSpaceOnUse">
	<stop  offset="0.1625" style="stop-color:#CFFEFF"/>
	<stop  offset="0.325" style="stop-color:#FFFFFF"/>
	<stop  offset="0.6175" style="stop-color:#E7D3DF"/>
	<stop  offset="0.8775" style="stop-color:#CFFEFF"/>
</radialGradient>
<path id="path420" inkscape:connector-curvature="0" class="st15" d="M62.8,4.4c0-0.1,1.3-3.3,1.3-3.3s-1.1-1-3.8-0.8
	c-2.8,0.2-4.5,0.7-6.5,3.6c-2.1,2.9-2.4,7.8-2.5,10.2c-0.1,2.5,0.3,6.9,1.3,9.4c1,2.5,3,4.9,3,4.9l4.2-0.6l4.4,1l-0.9-3.1
	c0,0-1.3,0.4-2.8,0.2c-1.5-0.3-3.1-1.6-3.6-5.4s-0.4-4.5-0.4-6.7c0-2.2,0.3-6.1,1.5-7.9c1.1-1.8,1.9-1.8,2.6-1.8
	C61.3,4.1,62.8,4.4,62.8,4.4L62.8,4.4z"/>
<linearGradient id="path422_1_" gradientUnits="userSpaceOnUse" x1="-320.7845" y1="-21.585" x2="-319.961" y2="-19.5435" gradientTransform="matrix(8.9317 0 0 -8.9317 2926.5049 -173.1283)">
	<stop  offset="0.1125" style="stop-color:#2F9DDD"/>
	<stop  offset="0.385" style="stop-color:#214A99"/>
	<stop  offset="0.5475" style="stop-color:#182D69"/>
	<stop  offset="0.7575" style="stop-color:#182B66"/>
	<stop  offset="0.9" style="stop-color:#101E4B"/>
	<stop  offset="1" style="stop-color:#131636"/>
</linearGradient>
<path id="path422" inkscape:connector-curvature="0" class="st16" d="M65.6,0.5c-0.1,0-2.4,4.6-2.4,4.6l0.1,9.5l-1.1,1.7l0,5.8
	l2.7-4.2l3.5-5.5l0.1-7.9L65.6,0.5z"/>
<radialGradient id="path424_1_" cx="-411.1064" cy="122.8672" r="9.668226e-02" gradientTransform="matrix(378.5551 0 0 -378.5551 155688.5156 46545.207)" gradientUnits="userSpaceOnUse">
	<stop  offset="0.1625" style="stop-color:#CFFEFF"/>
	<stop  offset="0.325" style="stop-color:#FFFFFF"/>
	<stop  offset="0.6175" style="stop-color:#E7D3DF"/>
	<stop  offset="0.8775" style="stop-color:#CFFEFF"/>
</radialGradient>
<path id="path424" inkscape:connector-curvature="0" class="st17" d="M65.9,0.7L66.1,14l-1.5,0l0.2,4l1.5,0.1l0.2,12.1l10.6,0.1
	L76.8,26l-5.6,0l-0.1-7.7l5.1,0l0-4l-5.1,0c0,0-0.2-9.3-0.2-9.3c0.1,0,5.3-0.1,5.3-0.1l-1.7-4L65.9,0.7z"/>
<path id="path426" inkscape:connector-curvature="0" class="st18" d="M44.2,28.4c0.1,0,2.5,0.2,2.5,0.2l-1-18.2l-1.4-0.2L44.2,28.4z
	"/>
<radialGradient id="path428_1_" cx="-410.7371" cy="123.3155" r="9.668219e-02" gradientTransform="matrix(552.0521 0 0 -552.0521 226796.8281 68104.6719)" gradientUnits="userSpaceOnUse">
	<stop  offset="0" style="stop-color:#214A99"/>
	<stop  offset="0.2046" style="stop-color:#194990"/>
	<stop  offset="0.4125" style="stop-color:#182D69"/>
	<stop  offset="0.5561" style="stop-color:#182B65"/>
	<stop  offset="0.69" style="stop-color:#101E4B"/>
	<stop  offset="0.8475" style="stop-color:#131636"/>
</radialGradient>
<path id="path428" inkscape:connector-curvature="0" class="st19" d="M23.3,0.7l1.1,3.7c0,0-2.9,0.8-4.6,2.3
	c-1.7,1.5-1.3,4.4-0.7,5.6c0.6,1.2,3.3,4.6,4.1,5.9c0.8,1.3,1,2.7,1,4.9c0,2.2-1.2,4-2.8,5.2c-1.5,1.2-2.3,1.8-3.3,2.1
	c-1,0.3-2.5,1-2.5,1l-1.7-3.8c0,0,2.9-0.2,5-2.9c2-2.7-0.5-5.4-1-6.2c-0.5-0.8-3.9-4.3-3.9-7.9c0-3.5,1.5-6.3,4.8-8.1
	C22.3,0.6,23.3,0.7,23.3,0.7z"/>
<radialGradient id="path430_1_" cx="-410.785" cy="122.9324" r="9.668229e-02" gradientTransform="matrix(395.2137 0 0 -395.2137 162397.1406 48617.5313)" gradientUnits="userSpaceOnUse">
	<stop  offset="0" style="stop-color:#214A99"/>
	<stop  offset="0.2046" style="stop-color:#194990"/>
	<stop  offset="0.4125" style="stop-color:#182D69"/>
	<stop  offset="0.5561" style="stop-color:#182B65"/>
	<stop  offset="0.69" style="stop-color:#101E4B"/>
	<stop  offset="0.8475" style="stop-color:#131636"/>
</radialGradient>
<path id="path430" inkscape:connector-curvature="0" class="st20" d="M43.9,0.3l-4.6,27.8c0,0,1.6-0.1,2.8-0.1c1.2,0,2.3,0,2.3,0
	l0.8-16.8l0.9,16.9c0,0,1.3-0.1,2.8-0.2c1.2,0,2.1,0,2.1,0L46.3,0.4L43.9,0.3z"/>
<radialGradient id="path432_1_" cx="-410.7411" cy="122.6394" r="9.668199e-02" gradientTransform="matrix(357.662 0 0 -357.662 146953.6094 43891.7422)" gradientUnits="userSpaceOnUse">
	<stop  offset="0" style="stop-color:#214A99"/>
	<stop  offset="0.2046" style="stop-color:#194990"/>
	<stop  offset="0.4125" style="stop-color:#182D69"/>
	<stop  offset="0.5561" style="stop-color:#182B65"/>
	<stop  offset="0.69" style="stop-color:#101E4B"/>
	<stop  offset="0.8475" style="stop-color:#131636"/>
</radialGradient>
<path id="path432" inkscape:connector-curvature="0" class="st21" d="M63.9,1.1l-1.2,3.2c0,0-1.6-0.6-3.1-0.2
	c-1.5,0.3-3.1,2.8-3.4,7.1c-0.2,4.2,0,9.1,0.6,10.8c0.6,1.7,1.5,3.9,3.2,4.1c1.7,0.3,3,0,3,0l0.8,2.6c0,0-4.1-0.2-5.5-0.3
	c-1.4-0.1-2.5,0-2.5-0.1c-0.1-0.1-3.3-3.6-3.9-8.3s-0.5-8,0-10.2c0.4-2.2,2-8.2,6.8-9.1C62.6-0.1,63.9,1.1,63.9,1.1L63.9,1.1z"/>
<radialGradient id="path434_1_" cx="-411.2233" cy="122.9113" r="9.668236e-02" gradientTransform="matrix(387.1519 0 0 -387.1519 159273.2188 47618.8203)" gradientUnits="userSpaceOnUse">
	<stop  offset="0" style="stop-color:#214A99"/>
	<stop  offset="0.2046" style="stop-color:#194990"/>
	<stop  offset="0.4125" style="stop-color:#182D69"/>
	<stop  offset="0.5561" style="stop-color:#182B65"/>
	<stop  offset="0.69" style="stop-color:#101E4B"/>
	<stop  offset="0.8475" style="stop-color:#131636"/>
</radialGradient>
<path id="path434" inkscape:connector-curvature="0" class="st22" d="M66.2,0.8L74.4,1L76,4.6l-5.2,0.1l0.1,9.6l5.1,0.1l0.1,3.6H71
	v8.1l5.7,0l0.1,4L66.5,30l-0.2-12.1l-1.5,0l-0.1-3.8h1.5L66.2,0.8z"/>
<radialGradient id="path436_1_" cx="-410.6862" cy="123.1677" r="9.668165e-02" gradientTransform="matrix(461.2388 0 0 -461.2512 189469.6719 56844.1563)" gradientUnits="userSpaceOnUse">
	<stop  offset="0.1625" style="stop-color:#CFFEFF"/>
	<stop  offset="0.325" style="stop-color:#FFFFFF"/>
	<stop  offset="0.6175" style="stop-color:#E7D3DF"/>
	<stop  offset="0.8775" style="stop-color:#CFFEFF"/>
</radialGradient>
<path id="path436" inkscape:connector-curvature="0" class="st23" d="M26.5,29.9c0.1,0,1-0.3,1.8-0.5c-1,0.1-1.6,0.3-1.8,0.3
	C26.5,29.9,26.5,29.9,26.5,29.9z"/>
<radialGradient id="path438_1_" cx="-410.6885" cy="123.2498" r="9.668216e-02" gradientTransform="matrix(482.1327 0 0 -482.1327 198051.8906 59456.7695)" gradientUnits="userSpaceOnUse">
	<stop  offset="0.1625" style="stop-color:#CFFEFF"/>
	<stop  offset="0.325" style="stop-color:#FFFFFF"/>
	<stop  offset="0.6175" style="stop-color:#E7D3DF"/>
	<stop  offset="0.8775" style="stop-color:#CFFEFF"/>
</radialGradient>
<path id="path438" inkscape:connector-curvature="0" class="st24" d="M36.9,1.6c-1.4-0.9-2.1-1.1-3.9-1.1c-1.8-0.1-6,0-6,0
	c-0.3,0-0.4,0.2-0.4,0.3c0.1,0.2-0.4,28.9-0.4,29.1c0.2,0.4,1-0.4,1.2-0.2c0.2,0.2,0.4-27.1,0.7-27c1.4,0.1,3.4-1.9,4.5-1.9
	c1.8,0,3.2,0.3,5,1.9c1.8,1.7,2.7,3.9,2.5,6.3c-0.1,2.4-0.3,4.1-1.7,5.9c-1.3,1.7-2.6,2.3-4.3,2.5c-1.7,0.2-2.9,0.3-2.9,0.3v11.4
	c0,0-0.1,0-0.2,0l0.6,0L31.5,18c0,0,2.8-0.4,3.9-0.6c1.6-0.3,5.1-2.6,5.1-7.9C40.6,4.2,38.3,2.5,36.9,1.6L36.9,1.6z"/>
<radialGradient id="path440_1_" cx="-410.7409" cy="122.6384" r="9.668188e-02" gradientTransform="matrix(357.6629 0 0 -357.6531 146953.875 43890.3086)" gradientUnits="userSpaceOnUse">
	<stop  offset="0" style="stop-color:#214A99"/>
	<stop  offset="0.2046" style="stop-color:#194990"/>
	<stop  offset="0.4125" style="stop-color:#182D69"/>
	<stop  offset="0.5561" style="stop-color:#182B65"/>
	<stop  offset="0.69" style="stop-color:#101E4B"/>
	<stop  offset="0.8475" style="stop-color:#131636"/>
</radialGradient>
<path id="path440" inkscape:connector-curvature="0" class="st25" d="M28.2,29.5c0.1,0,0.1,0,0.2,0c1.1-0.1,2.2-0.3,2.6-0.4l-2,0.2
	C29,29.2,28.7,29.3,28.2,29.5L28.2,29.5z"/>
<radialGradient id="path442_1_" cx="-410.7409" cy="122.6394" r="9.668246e-02" gradientTransform="matrix(357.6629 0 0 -357.662 146953.875 43891.7422)" gradientUnits="userSpaceOnUse">
	<stop  offset="0" style="stop-color:#214A99"/>
	<stop  offset="0.2046" style="stop-color:#194990"/>
	<stop  offset="0.4125" style="stop-color:#182D69"/>
	<stop  offset="0.5561" style="stop-color:#182B65"/>
	<stop  offset="0.69" style="stop-color:#101E4B"/>
	<stop  offset="0.8475" style="stop-color:#131636"/>
</radialGradient>
<path id="path442" inkscape:connector-curvature="0" class="st26" d="M26.9,0.7C26.9,0.7,26.9,0.7,26.9,0.7l0,0.1l-0.5,28.9
	c0,0,0,0,0.1,0C26.4,27.6,26.9,3.6,26.9,0.7L26.9,0.7z"/>
<radialGradient id="path444_1_" cx="-410.6861" cy="123.1662" r="9.668241e-02" gradientTransform="matrix(461.2406 0 0 -461.2406 189470.3594 56842.1523)" gradientUnits="userSpaceOnUse">
	<stop  offset="0.1625" style="stop-color:#CFFEFF"/>
	<stop  offset="0.325" style="stop-color:#FFFFFF"/>
	<stop  offset="0.6175" style="stop-color:#E7D3DF"/>
	<stop  offset="0.8775" style="stop-color:#CFFEFF"/>
</radialGradient>
<path id="path444" inkscape:connector-curvature="0" class="st27" d="M31.2,17.6c0,0,1.1-0.1,2.9-0.3c1.7-0.2,2.3-0.9,3.9-2.3
	c1.6-1.5,2-3.6,2.1-6c0.1-2.4-0.7-4.7-2.5-6.3c-1.8-1.7-3.2-1.9-5-1.9c-1.7,0-5.3,0-5.7,0c-0.1,2.8-0.5,26.9-0.5,29
	c0.2,0,0.7-0.2,1.8-0.3c0.5-0.1,0.8-0.2,0.8-0.2l2-0.2c0.1,0,0.2,0,0.2,0L31.2,17.6L31.2,17.6z M32.6,4.3c0.6,0,1.1,0.2,1.8,1
	C35.2,6,35.8,7,35.7,8.4s0.3,2.7-0.8,4.2c-1.1,1.5-3.2,1.7-3.2,1.7l-0.1-9.9C31.6,4.4,32.1,4.3,32.6,4.3z"/>
<radialGradient id="path446_1_" cx="-410.7411" cy="122.6394" r="9.668233e-02" gradientTransform="matrix(357.662 0 0 -357.662 146953.6094 43891.7461)" gradientUnits="userSpaceOnUse">
	<stop  offset="0" style="stop-color:#214A99"/>
	<stop  offset="0.2046" style="stop-color:#194990"/>
	<stop  offset="0.4125" style="stop-color:#182D69"/>
	<stop  offset="0.5561" style="stop-color:#182B65"/>
	<stop  offset="0.69" style="stop-color:#101E4B"/>
	<stop  offset="0.8475" style="stop-color:#131636"/>
</radialGradient>
<path id="path446" inkscape:connector-curvature="0" class="st28" d="M31.2,17.6c0,0,1.1-0.1,2.9-0.3c1.7-0.2,2.6-0.4,4.1-2
	c1.6-1.7,1.7-3.9,1.9-6.3c0.1-2.4-0.7-4.7-2.5-6.3c-1.8-1.7-3.2-1.9-5-1.9c-1.7,0-5.3,0-5.7,0c-0.1,2.8-0.5,26.9-0.5,29
	c0.2,0,0.7-0.2,1.8-0.3c0.5-0.1,0.8-0.2,0.8-0.2l2-0.2c0.1,0,0.2,0,0.2,0L31.2,17.6L31.2,17.6z M32.7,4.4c0.6,0,1.2,0.4,1.9,1.1
	c0.7,0.7,1.2,1.8,1.2,3.5c0,1.4,0,2.1-1.1,3.6c-1.1,1.5-2.9,1.6-2.9,1.6l-0.1-9.9C31.6,4.4,32.1,4.4,32.7,4.4L32.7,4.4z"/>
<radialGradient id="path448_1_" cx="-410.8503" cy="123.3034" r="9.668181e-02" gradientTransform="matrix(476.1289 -6.3808 -5.5799 -416.3695 196358.7188 48763.8906)" gradientUnits="userSpaceOnUse">
	<stop  offset="0" style="stop-color:#A474AB"/>
	<stop  offset="0.1525" style="stop-color:#E9A1BB"/>
	<stop  offset="0.2525" style="stop-color:#C785C1"/>
	<stop  offset="0.5575" style="stop-color:#C987C1"/>
	<stop  offset="0.7925" style="stop-color:#694A6E"/>
	<stop  offset="0.9775" style="stop-color:#1A4392"/>
</radialGradient>
<path id="path448" inkscape:connector-curvature="0" class="st29" d="M96.6,43.9c0.1,9-21.4,16.4-48,16.5
	C22.1,60.7,0.5,53.5,0.4,44.6c-0.1-9,21.4-16.4,48-16.5C75,27.9,96.6,35,96.6,43.9z"/>
<radialGradient id="path450_1_" cx="-414.1164" cy="124.7364" r="9.668206e-02" gradientTransform="matrix(-4.0555 -144.7819 -477.2903 13.3694 57906.8398 -61575.6875)" gradientUnits="userSpaceOnUse">
	<stop  offset="0.2525" style="stop-color:#C785C1"/>
	<stop  offset="0.6925" style="stop-color:#C987C1"/>
	<stop  offset="0.8475" style="stop-color:#E9A1BB"/>
	<stop  offset="1" style="stop-color:#A474AB"/>
</radialGradient>
<path id="path450" inkscape:connector-curvature="0" class="st30" d="M87.2,47.9c0,6.3-17.1,11.5-38.3,11.6
	c-21.2,0.1-38.4-4.8-38.5-11.1c0-6.3,17.1-11.5,38.3-11.6C70,36.7,87.2,41.6,87.2,47.9z"/>
<radialGradient id="path452_1_" cx="-410.7995" cy="121.357" r="9.667296e-02" gradientTransform="matrix(448.6941 -14.7694 -5.358 -162.7774 185022.375 13732.9561)" gradientUnits="userSpaceOnUse">
	<stop  offset="0.2525" style="stop-color:#C785C1"/>
	<stop  offset="0.3725" style="stop-color:#694A6E"/>
	<stop  offset="0.5825" style="stop-color:#C987C1"/>
	<stop  offset="0.7125" style="stop-color:#E9A1BB"/>
	<stop  offset="0.83" style="stop-color:#A474AB"/>
	<stop  offset="1" style="stop-color:#1A4392"/>
</radialGradient>
<path id="path452" inkscape:connector-curvature="0" class="st31" d="M91.7,45.4c0.1,8.1-19.1,14.8-42.8,14.9
	C25.2,60.5,6,54.1,5.9,46C5.9,37.9,25,31.2,48.7,31C72.4,30.8,91.7,37.3,91.7,45.4z"/>
<radialGradient id="path454_1_" cx="-410.8152" cy="123.4637" r="9.668230e-02" gradientTransform="matrix(349.6414 -2.3534 -2.3534 -349.6414 143978.1094 42261.9453)" gradientUnits="userSpaceOnUse">
	<stop  offset="0.1625" style="stop-color:#CFFEFF"/>
	<stop  offset="0.325" style="stop-color:#FFFFFF"/>
	<stop  offset="0.6175" style="stop-color:#E7D3DF"/>
	<stop  offset="0.8655" style="stop-color:#FDF8C9"/>
</radialGradient>
<path id="path454" inkscape:connector-curvature="0" class="st32" d="M78.4,48c0,4.8-13.2,8.9-29.5,9c-16.3,0.1-29.6-3.7-29.6-8.6
	c0-4.8,13.2-9.1,29.5-9.2C65.1,39,78.4,43.2,78.4,48L78.4,48z"/>
<path id="path456" inkscape:connector-curvature="0" class="st33" d="M48.3,31.3c-8.1,0.1-16.1,0.9-22.8,2.5
	C16.8,36,10.1,39.3,7.7,42c-1,1.1-1.9,3.5-1.9,2.3c0-5.9,16-14.5,42.7-14.8c23.6-0.3,42.7,6.2,42.8,15.2c0,1-1.5-3.9-4.4-5.5
	C80.9,36.1,68.1,31.2,48.3,31.3z"/>
<path id="path458" inkscape:connector-curvature="0" class="st34" d="M48.1,35.6c-11.4,0.1-23.2,1.8-30.1,5
	c-5.7,2.7-6.3,6.6-6.7,5.3c-1.3-4.8,16.2-13.5,37.1-13.6c20.9-0.1,37,5.8,37.2,13.2c0,0.6-3.3-4.4-7.2-5.3
	C74.9,39.2,66.8,35.5,48.1,35.6L48.1,35.6z"/>
<path id="path460" inkscape:connector-curvature="0" class="st35" d="M26.3,41.4l0.3-3.3c0,0,10.2-1.8,12.2-2.2
	c2-0.3,15.1-0.2,19.4,0.1c4.3,0.2,11.3,1.2,13.2,1.8c1.9,0.6,4.3,1.5,4.3,1.5l-0.1,4.7c0,0-6-3.2-14.6-4.1
	c-8.6-0.9-13.5-1.4-21.6-0.2c-8.1,1.1-12.8,2.7-12.8,2.7L26.3,41.4z"/>
<path id="path462" inkscape:connector-curvature="0" class="st34" d="M26.7,33.7l-0.4,4.1c0,0,16.7-4.1,20-3.8
	c3.3,0.4,14.2,0.9,16,1.3c1.8,0.4,13,2.9,13,2.9l0.2-3.7c0,0-14.9-4.1-25.1-3.4C40.3,31.8,26.7,33.7,26.7,33.7L26.7,33.7z"/>
<path id="path464" inkscape:connector-curvature="0" class="st33" d="M26.9,32.9l0.3-3.2c0,0,15.8-1.8,22.4-1.8
	c6.7,0.1,21,1.5,22.8,2.2s3.2,0.5,3.2,0.5l0,3c0,0-20.7-2.5-26.5-2.4C43.4,31.3,27.4,32.7,26.9,32.9L26.9,32.9z"/>
<radialGradient id="path466_1_" cx="-411.1828" cy="121.2143" r="9.668212e-02" gradientTransform="matrix(154.6645 -1.041 -1.041 -154.6645 63773.7813 18366.1133)" gradientUnits="userSpaceOnUse">
	<stop  offset="0" style="stop-color:#FFFFFF"/>
	<stop  offset="0.3625" style="stop-color:#F8E740"/>
	<stop  offset="1" style="stop-color:#FDF8C9"/>
</radialGradient>
<path id="path466" inkscape:connector-curvature="0" class="st36" d="M48.5,38.8c-17,0.1-30.7,4.3-30.7,9.4s13.8,9.1,30.8,9
	c17-0.1,30.7-4.3,30.7-9.4C79.2,42.8,65.5,38.7,48.5,38.8L48.5,38.8z M48.6,56.8c-16.1,0.1-29.1-3.7-29.1-8.5c0-4.8,13-8.8,29-8.9
	c16.1-0.1,29.1,3.7,29.1,8.5C77.7,52.7,64.7,56.7,48.6,56.8z"/>
<radialGradient id="path468_1_" cx="-410.7978" cy="122.9799" r="9.668023e-02" gradientTransform="matrix(332.2848 -2.2366 -2.2366 -332.2848 136825.4531 39991.1719)" gradientUnits="userSpaceOnUse">
	<stop  offset="0" style="stop-color:#FFFFFF"/>
	<stop  offset="0.3625" style="stop-color:#F8E740"/>
	<stop  offset="1" style="stop-color:#FDF8C9"/>
</radialGradient>
<path id="path468" inkscape:connector-curvature="0" class="st37" d="M48.4,31.1c-23.8,0.2-43,7.1-42.9,15.1
	C5.6,54,24.9,60.3,48.6,60.2c23.8-0.2,43-6.7,42.9-14.6C91.5,37.6,72.2,30.9,48.4,31.1z M48.6,59.9C25.3,60.1,6.4,53.9,6.3,46.1
	c-0.1-7.8,18.8-14.3,42.1-14.4c23.3-0.2,42.3,6.1,42.3,13.9C90.8,53.3,71.9,59.8,48.6,59.9z"/>
<radialGradient id="path470_1_" cx="-410.7831" cy="123.109" r="9.667676e-02" gradientTransform="matrix(372.006 -2.504 -2.504 -372.006 153170.5781 44812.75)" gradientUnits="userSpaceOnUse">
	<stop  offset="0" style="stop-color:#FFFFFF"/>
	<stop  offset="0.3625" style="stop-color:#F8E740"/>
	<stop  offset="1" style="stop-color:#FDF8C9"/>
</radialGradient>
<path id="path470" inkscape:connector-curvature="0" class="st38" d="M48.4,27.7c-26.6,0.2-48.1,8-48,16.9
	c0.1,8.9,21.7,16,48.3,15.8c26.6-0.2,48.1-7.5,48-16.5C96.6,35.1,75,27.5,48.4,27.7z M48.6,60.2c-26.5,0.2-48-6.7-48.1-15.4
	C0.5,36,21.9,28.4,48.4,28.2c26.5-0.2,48,7.2,48.1,15.9C96.5,52.8,75.1,60,48.6,60.2z"/>
<radialGradient id="path472_1_" cx="-410.8206" cy="122.805" r="9.667615e-02" gradientTransform="matrix(289.4564 -1.9483 -1.9483 -289.4564 119202.4609 34793.8203)" gradientUnits="userSpaceOnUse">
	<stop  offset="0" style="stop-color:#FFFFFF"/>
	<stop  offset="0.3625" style="stop-color:#F8E740"/>
	<stop  offset="1" style="stop-color:#FDF8C9"/>
</radialGradient>
<path id="path472" inkscape:connector-curvature="0" class="st39" d="M48.5,35.2C27.7,35.3,10.9,41,10.9,47.8
	c0,6.8,16.9,12.2,37.7,12.1c20.8-0.1,37.6-5.8,37.5-12.6C86.1,40.5,69.2,35.1,48.5,35.2z M48.6,59.4c-20.5,0.1-37.2-5-37.2-11.5
	c0-6.5,16.5-11.9,37.1-12c20.5-0.1,37.2,5,37.2,11.5C85.7,53.9,69.1,59.3,48.6,59.4L48.6,59.4z"/>
<linearGradient id="path474_1_" gradientUnits="userSpaceOnUse" x1="-321.203" y1="-23.9432" x2="-323.2357" y2="-29.3377" gradientTransform="matrix(8.9317 0 0 -8.9317 2926.5049 -173.1283)">
	<stop  offset="0.1125" style="stop-color:#2F9DDD"/>
	<stop  offset="0.385" style="stop-color:#214A99"/>
	<stop  offset="0.5475" style="stop-color:#182D69"/>
	<stop  offset="0.5959" style="stop-color:#182B66"/>
	<stop  offset="0.6742" style="stop-color:#101E4B"/>
	<stop  offset="0.7929" style="stop-color:#131636"/>
	<stop  offset="0.9949" style="stop-color:#2F9DDD"/>
</linearGradient>
<path id="path474" inkscape:connector-curvature="0" class="st40" d="M12.3,63.7c0.1,0,7.9-4,7.9-4l2.7,0.5l-0.2,9.6l2.4,0
	c0,0,0.3-26.9,0.5-26.9c0.2,0,3.2-1.1,3.2-1.1s3.4-0.6,3.5-0.6c0.1,0,2.3-0.7,2.3-0.7l0.1,11.1l1.9-11.3c0,0,3.5-0.3,4-0.3
	c0.6,0,4.1-0.4,4.1-0.4s-1.5,21.6-1.3,21.6c0.2-0.1,3.2-0.1,3.2-0.1l-0.9-21.5c0-0.1,4.2,0.2,4.2,0.2l3.8-0.3l1.8,10.2l1.2-10
	l3.1,0.4c0,0,1.7,0.4,1.7,0.5c0,0.1,3.9,10,3.9,10l3.3-8.9l2.5,0.9l3.7,2.3l3.2,23c0,0,2.6,9.5,2.5,9.5c-0.1,0-10.3-0.2-10.3-0.2
	l-1.4-8l-1.5,6.9l-3.6,0.2l-2.2-7.2l-1,8.2L49,77.4l-0.9-6.7h-6.2L41,77.4l-10.8,0l0.3-1.3c0,0,0,1-2.6,1.1
	c-2.6,0.1-10.5,0.1-11.9,0c-1.5-0.1-2.2-0.7-2.9-1.5c-0.7-0.8-0.8-1-0.9-2.5C12,71.8,12.3,63.7,12.3,63.7L12.3,63.7z"/>
<radialGradient id="path476_1_" cx="-410.8023" cy="123.2902" r="9.668206e-02" gradientTransform="matrix(482.0774 0 0 -482.0774 198089.8438 59471.5703)" gradientUnits="userSpaceOnUse">
	<stop  offset="0.1625" style="stop-color:#CFFEFF"/>
	<stop  offset="0.325" style="stop-color:#FFFFFF"/>
	<stop  offset="0.6175" style="stop-color:#E7D3DF"/>
	<stop  offset="0.8775" style="stop-color:#CFFEFF"/>
</radialGradient>
<path id="path476" inkscape:connector-curvature="0" class="st41" d="M19.9,60.3c0,0.2,0,9.6,0,9.6l5.5-0.1l0.5-27l5.6-1.6l1.7-0.4
	l-0.3,23.7L37,40l3.8-0.1l3.8-0.4l-1.4,21.4l4.4,0l-1.1-21.4l4,0.2l2.8-0.3l2.9,15.5l2.2-15l1.6,0.3l1.8,0.1l5,13.7l3.9-11.5l2,1.6
	l2.8,0.9l5.2,31.9h-6.6L72,62.2L67.8,76H67l-4.7-13.4l-1.8,14.8l-10.4-0.1L49.1,70h-7.5l-1,7.1h-9.9l0.2-1.9c0,0-0.2,1-1.5,1.1
	c-1.2,0.2-12,0.3-13.1,0.1c-1.1-0.1-2.1-0.4-2.9-1.3c-0.8-0.9-0.9-1.2-1-2.4c-0.1-1.2,0-9.3,0-9.3L19.9,60.3z"/>
<radialGradient id="path478_1_" cx="-410.7783" cy="123.3743" r="9.668213e-02" gradientTransform="matrix(517.3327 0 0 -517.3327 212559.5781 63861.5508)" gradientUnits="userSpaceOnUse">
	<stop  offset="0" style="stop-color:#214A99"/>
	<stop  offset="0.2046" style="stop-color:#194990"/>
	<stop  offset="0.4125" style="stop-color:#182D69"/>
	<stop  offset="0.5561" style="stop-color:#182B65"/>
	<stop  offset="0.69" style="stop-color:#101E4B"/>
	<stop  offset="0.8475" style="stop-color:#131636"/>
</radialGradient>
<path id="path478" inkscape:connector-curvature="0" class="st42" d="M32.5,40.8v26.6l4.7-27.3c0,0,2.4-0.3,4.3-0.4
	c1.9-0.1,2.5-0.3,2.5-0.3l-1.2,21.6h4.9l-1-21.7c0,0,2.3-0.1,3.8-0.1c1.5,0,2.5,0.1,2.5,0.1l3.2,17l2.4-16.6c0,0,0.4,0.2,1.6,0.3
	c1.2,0.1,1.4,0.2,1.4,0.2l5.2,14.3L71,42.5c0,0,1.1,0.5,2.5,1.1c1.3,0.6,1.7,1,1.7,1l5.3,31.9h-6.3L72,61.2l-4.3,14.4h-0.5
	l-4.9-14.1l-1.9,15.3h-10l-1.1-7.2h-8l-0.9,7.1h-9.4l0.2-2.2c0,0-1.1,1.4-2.1,1.5c-1,0.1-11.2,0.4-12.4,0.2
	c-1.2-0.2-2.2-0.3-3.2-1.6c-0.7-1-0.8-1.5-0.8-2.9c0.1-1.3,0-8.1,0-8.1l7-3l0,9.5h6.1l0.5-27.5C26.1,42.7,28.5,41.8,32.5,40.8
	L32.5,40.8z"/>
<path id="path480" inkscape:connector-curvature="0" class="st43" d="M94.3,80h-2.2c0,0.8-0.1,1.7-0.2,2.1c-0.1,0.6-1.1,1.5-1.1,1.5
	s-0.1-0.2-0.6-0.6c-0.5-0.5-0.8-1.3-0.8-2c0-0.3,0-0.6,0-1h-2.2c0,0,0.1,1.2,0.2,2c0.1,0.9,0.9,2.4,1.7,2.9c0.3,0.2,0.6,0.5,1,0.7
	V89h2v-3.5c0.9-0.8,0.8-0.7,1.7-1.9C94.6,82.4,94.3,80,94.3,80L94.3,80z"/>
<path id="path482" inkscape:connector-curvature="0" class="st43" d="M83.7,86.9c-1.3,0-2.4-1.1-2.4-2.5c0-1.4,1.1-2.5,2.4-2.5
	c0.6,0,1.1,0.2,1.5,0.6l1.5-1.4c-0.8-0.8-1.8-1.4-3-1.4c-2.5,0-4.5,2.1-4.5,4.7c0,2.6,2,4.7,4.5,4.7c1.3,0,2.5-0.6,3.3-1.5l-1.7-1.4
	C84.9,86.6,84.3,86.9,83.7,86.9z"/>
<path id="path484" inkscape:connector-curvature="0" class="st43" d="M69.7,84.1h-2.8v2.3h1.1c-0.4,0.4-0.9,0.6-1.5,0.6
	c-1.2,0-2.3-1.1-2.3-2.5c0-1.4,1-2.5,2.3-2.5c0.6,0,1.1,0.3,1.5,0.7l1.8-1.4c-0.8-0.9-2-1.5-3.2-1.5c-2.5,0-4.5,2.1-4.5,4.7
	c0,2.6,2,4.7,4.5,4.7c1.8,0,3.4-1.1,4.1-2.8c0.2-0.5,0.3-1,0.4-1.5l0-0.7L69.7,84.1L69.7,84.1z"/>
<path id="path486" inkscape:connector-curvature="0" class="st43" d="M61.6,82v-2.1h-6.9v9h6.9v-2.3h-4.9v-1.1h3.2v-2.2h-3.2V82
	H61.6z"/>
<path id="path488" inkscape:connector-curvature="0" class="st43" d="M29.8,82v-2.1h-6.9v9h6.9v-2.3h-4.9v-1.1h3.3v-2.2h-3.3V82
	H29.8z"/>
<path id="path490" inkscape:connector-curvature="0" class="st43" d="M48.9,79.9h-2.2v9h7.1v-2.3h-4.9V79.9z"/>
<path id="path492" inkscape:connector-curvature="0" class="st43" d="M5.4,80c0-0.1-4.9,8.9-4.9,8.9l2.4,0L3.2,88h3.4L7,88.9l2.2,0
	C9.2,88.9,5.4,80.1,5.4,80L5.4,80z M4.2,86.1L5,84.3l0.8,1.8H4.2z"/>
<path id="path494" inkscape:connector-curvature="0" class="st43" d="M75,80c0-0.1-4.2,8.9-4.2,8.9l2.4,0l0.4-0.9H77l0.4,0.9l2.2,0
	C79.6,88.9,75,80.1,75,80L75,80z M74.4,86.1l0.7-1.8l0.9,1.8H74.4z"/>
<path id="path496" inkscape:connector-curvature="0" class="st43" d="M21.7,88.9L21.7,88.9l0-9h-2.2v3.9l-5-4.2v9.3h2.1v-4.4
	L21.7,88.9z"/>
<path id="path498" inkscape:connector-curvature="0" class="st43" d="M34.2,89.1c0,0,0-0.1,0.1-0.1h-0.1L34.2,89.1z"/>
<path id="path500" inkscape:connector-curvature="0" class="st43" d="M34.2,89c0.1-0.3,1.9-3.5,1.9-3.5c0,0.1,1.5,3.1,1.7,3.5
	l3.9-9.1h-2.1c-0.6,1.2-1.8,3.7-1.9,3.8c-0.1,0.1-1.5-3.6-1.5-3.6l-2,3.7l-1.5-4h-2.3l3.8,9.1L34.2,89z"/>
<path id="path502" inkscape:connector-curvature="0" class="st43" d="M37.8,89L37.8,89L37.8,89L37.8,89z"/>
<linearGradient id="path504_1_" gradientUnits="userSpaceOnUse" x1="-317.4396" y1="-27.8573" x2="-317.4165" y2="-29.0039" gradientTransform="matrix(8.9317 0 0 -8.9317 2926.5049 -173.1283)">
	<stop  offset="0" style="stop-color:#CC320A"/>
	<stop  offset="0.346" style="stop-color:#E66A0F"/>
	<stop  offset="0.9823" style="stop-color:#E9B110"/>
</linearGradient>
<path id="path504" inkscape:connector-curvature="0" class="st44" d="M94.9,80h-2.2c0,0.8-0.1,1.7-0.2,2.1c-0.1,0.6-1.1,1.5-1.1,1.5
	s-0.1-0.2-0.6-0.6s-0.8-1.3-0.8-2c0-0.3,0-0.6,0-1h-2.2c0,0,0.1,1.2,0.2,2c0.1,0.9,1,2.4,1.7,2.9c0.3,0.2,0.6,0.5,1,0.7V89h2v-3.5
	c0.9-0.8,0.8-0.7,1.7-1.9C95.2,82.4,94.9,80,94.9,80L94.9,80z"/>
<linearGradient id="path506_1_" gradientUnits="userSpaceOnUse" x1="-318.3233" y1="-27.8752" x2="-318.3001" y2="-29.0218" gradientTransform="matrix(8.9317 0 0 -8.9317 2926.5049 -173.1283)">
	<stop  offset="0" style="stop-color:#CC320A"/>
	<stop  offset="0.346" style="stop-color:#E66A0F"/>
	<stop  offset="0.9823" style="stop-color:#E9B110"/>
</linearGradient>
<path id="path506" inkscape:connector-curvature="0" class="st45" d="M84.2,86.9c-1.3,0-2.4-1.1-2.4-2.5c0-1.4,1.1-2.5,2.4-2.5
	c0.6,0,1.1,0.2,1.5,0.6l1.5-1.4c-0.8-0.8-1.8-1.4-3-1.4c-2.5,0-4.6,2.1-4.6,4.7c0,2.6,2.1,4.7,4.6,4.7c1.4,0,2.5-0.6,3.3-1.5
	l-1.7-1.4C85.4,86.6,84.8,86.9,84.2,86.9z"/>
<linearGradient id="path508_1_" gradientUnits="userSpaceOnUse" x1="-320.1869" y1="-27.9128" x2="-320.1636" y2="-29.0594" gradientTransform="matrix(8.9317 0 0 -8.9317 2926.5049 -173.1283)">
	<stop  offset="0" style="stop-color:#CC320A"/>
	<stop  offset="0.346" style="stop-color:#E66A0F"/>
	<stop  offset="0.9823" style="stop-color:#E9B110"/>
</linearGradient>
<path id="path508" inkscape:connector-curvature="0" class="st46" d="M70,84.1h-2.8v2.3h1.1c-0.4,0.4-0.9,0.6-1.5,0.6
	c-1.3,0-2.3-1.1-2.3-2.5c0-1.4,1-2.5,2.3-2.5c0.6,0,1.1,0.3,1.5,0.7l1.8-1.4c-0.8-0.9-2-1.5-3.3-1.5c-2.5,0-4.5,2.1-4.5,4.7
	c0,2.6,2,4.7,4.5,4.7c1.8,0,3.4-1.1,4.1-2.8c0.2-0.5,0.3-1,0.4-1.5l0-0.7L70,84.1L70,84.1z"/>
<linearGradient id="path510_1_" gradientUnits="userSpaceOnUse" x1="-321.1415" y1="-27.932" x2="-321.1184" y2="-29.0787" gradientTransform="matrix(8.9317 0 0 -8.9317 2926.5049 -173.1283)">
	<stop  offset="0" style="stop-color:#CC320A"/>
	<stop  offset="0.346" style="stop-color:#E66A0F"/>
	<stop  offset="0.9823" style="stop-color:#E9B110"/>
</linearGradient>
<path id="path510" inkscape:connector-curvature="0" class="st47" d="M61.8,82v-2.1h-6.9v9h6.9v-2.3h-4.9v-1.1h3.3v-2.2h-3.3V82
	H61.8z"/>
<linearGradient id="path512_1_" gradientUnits="userSpaceOnUse" x1="-324.7367" y1="-28.0046" x2="-324.7136" y2="-29.1513" gradientTransform="matrix(8.9317 0 0 -8.9317 2926.5049 -173.1283)">
	<stop  offset="0" style="stop-color:#CC320A"/>
	<stop  offset="0.346" style="stop-color:#E66A0F"/>
	<stop  offset="0.9823" style="stop-color:#E9B110"/>
</linearGradient>
<path id="path512" inkscape:connector-curvature="0" class="st48" d="M29.7,82v-2.1h-6.9v9h6.9v-2.3h-4.9v-1.1H28v-2.2h-3.3V82H29.7
	z"/>
<linearGradient id="path514_1_" gradientUnits="userSpaceOnUse" x1="-322.048" y1="-27.9503" x2="-322.0248" y2="-29.0969" gradientTransform="matrix(8.9317 0 0 -8.9317 2926.5049 -173.1283)">
	<stop  offset="0" style="stop-color:#CC320A"/>
	<stop  offset="0.346" style="stop-color:#E66A0F"/>
	<stop  offset="0.9823" style="stop-color:#E9B110"/>
</linearGradient>
<path id="path514" inkscape:connector-curvature="0" class="st49" d="M48.9,79.9h-2.2v9h7.2v-2.3h-4.9V79.9z"/>
<linearGradient id="path516_1_" gradientUnits="userSpaceOnUse" x1="-327.1817" y1="-28.0541" x2="-327.1585" y2="-29.2008" gradientTransform="matrix(8.9317 0 0 -8.9317 2926.5049 -173.1283)">
	<stop  offset="0" style="stop-color:#CC320A"/>
	<stop  offset="0.346" style="stop-color:#E66A0F"/>
	<stop  offset="0.9823" style="stop-color:#E9B110"/>
</linearGradient>
<path id="path516" inkscape:connector-curvature="0" class="st50" d="M5,80c0-0.1-5,8.9-5,8.9l2.4,0L2.8,88h3.4l0.4,0.9l2.3,0
	C8.9,88.9,5,80.1,5,80L5,80z M3.8,86.1l0.9-1.8l0.8,1.8H3.8z"/>
<linearGradient id="path518_1_" gradientUnits="userSpaceOnUse" x1="-319.2193" y1="-27.8932" x2="-319.1961" y2="-29.0399" gradientTransform="matrix(8.9317 0 0 -8.9317 2926.5049 -173.1283)">
	<stop  offset="0" style="stop-color:#CC320A"/>
	<stop  offset="0.346" style="stop-color:#E66A0F"/>
	<stop  offset="0.9823" style="stop-color:#E9B110"/>
</linearGradient>
<path id="path518" inkscape:connector-curvature="0" class="st51" d="M75.4,80c0-0.1-4.2,8.9-4.2,8.9l2.4,0L74,88h3.4l0.4,0.9l2.3,0
	C80,88.9,75.4,80.1,75.4,80L75.4,80z M74.8,86.1l0.7-1.8l0.9,1.8H74.8z"/>
<linearGradient id="path520_1_" gradientUnits="userSpaceOnUse" x1="-325.6776" y1="-28.0237" x2="-325.6544" y2="-29.1704" gradientTransform="matrix(8.9317 0 0 -8.9317 2926.5049 -173.1283)">
	<stop  offset="0" style="stop-color:#CC320A"/>
	<stop  offset="0.346" style="stop-color:#E66A0F"/>
	<stop  offset="0.9823" style="stop-color:#E9B110"/>
</linearGradient>
<path id="path520" inkscape:connector-curvature="0" class="st52" d="M21.5,88.9L21.5,88.9l0-9h-2.2v3.9l-5.1-4.2v9.3h2.1v-4.4
	L21.5,88.9z"/>
<linearGradient id="path522_1_" gradientUnits="userSpaceOnUse" x1="-323.8662" y1="-27.9871" x2="-323.843" y2="-29.1337" gradientTransform="matrix(8.9317 0 0 -8.9317 2926.5049 -173.1283)">
	<stop  offset="0" style="stop-color:#CC320A"/>
	<stop  offset="0.346" style="stop-color:#E66A0F"/>
	<stop  offset="0.9823" style="stop-color:#E9B110"/>
</linearGradient>
<path id="path522" inkscape:connector-curvature="0" class="st53" d="M34.1,89.1c0,0,0-0.1,0.1-0.1H34L34.1,89.1z"/>
<linearGradient id="path524_1_" gradientUnits="userSpaceOnUse" x1="-323.6374" y1="-27.9824" x2="-323.6142" y2="-29.129" gradientTransform="matrix(8.9317 0 0 -8.9317 2926.5049 -173.1283)">
	<stop  offset="0" style="stop-color:#CC320A"/>
	<stop  offset="0.346" style="stop-color:#E66A0F"/>
	<stop  offset="0.9823" style="stop-color:#E9B110"/>
</linearGradient>
<path id="path524" inkscape:connector-curvature="0" class="st54" d="M34.1,89c0.1-0.3,1.9-3.5,1.9-3.5c0,0.1,1.5,3.1,1.7,3.5
	l3.9-9.1h-2.1c-0.6,1.2-1.8,3.7-1.9,3.8c-0.1,0.1-1.6-3.6-1.6-3.6l-2,3.7l-1.5-4h-2.4L34,89L34.1,89z"/>
<linearGradient id="path526_1_" gradientUnits="userSpaceOnUse" x1="-323.4531" y1="-27.9781" x2="-323.4299" y2="-29.1254" gradientTransform="matrix(8.9317 0 0 -8.9317 2926.5049 -173.1283)">
	<stop  offset="0" style="stop-color:#CC320A"/>
	<stop  offset="0.346" style="stop-color:#E66A0F"/>
	<stop  offset="0.9823" style="stop-color:#E9B110"/>
</linearGradient>
<path id="path526" inkscape:connector-curvature="0" class="st55" d="M37.8,89L37.8,89L37.8,89L37.8,89z"/>
</svg>
