<?xml version="1.0" encoding="UTF-8"?>
<!DOCTYPE svg PUBLIC "-//W3C//DTD SVG 1.1//EN" "http://www.w3.org/Graphics/SVG/1.1/DTD/svg11.dtd">
<!-- Creator: CorelDRAW X5 -->
<svg xmlns="http://www.w3.org/2000/svg" xml:space="preserve" width="91.44mm" height="91.44mm" style="shape-rendering:geometricPrecision; text-rendering:geometricPrecision; image-rendering:optimizeQuality; fill-rule:evenodd; clip-rule:evenodd"
viewBox="0 0 9144 9144"
 xmlns:xlink="http://www.w3.org/1999/xlink">
 <defs>
  <style type="text/css">
   <![CDATA[
    .fil8 {fill:#3CAF41}
    .fil3 {fill:#4A9E4B}
    .fil0 {fill:#4D4C4B}
    .fil1 {fill:#5FB74E}
    .fil2 {fill:#89C45F}
    .fil6 {fill:#EEEFEE}
    .fil5 {fill:#FCD066}
    .fil4 {fill:#FDF8B4}
    .fil7 {fill:#FEFEFE}
   ]]>
  </style>
 </defs>
 <g id="Layer_x0020_1">
  <metadata id="CorelCorpID_0Corel-Layer"/>
  <path class="fil0" d="M4573 1526c310,-155 687,-240 1032,-270l387 -34c424,-37 849,-14 1273,-14l233 0 0 233c0,1034 0,2069 0,3103l0 119c0,1068 -873,1941 -1941,1941l-3912 0 0 -5395 233 0c425,0 848,-28 1273,5l387 29c368,28 705,117 1035,283z"/>
  <path class="fil1" d="M1878 1442l0 2658 0 445 0 119 0 1708 1708 0 268 0 1704 0c940,0 1708,-769 1708,-1708l0 -119c0,-1028 0,-2031 0,-3103 -408,0 -839,-10 -1253,13l-387 33c-379,46 -763,135 -1053,302 -314,-181 -656,-271 -1051,-316l-387 -29c-422,-20 -855,-4 -1256,-4z"/>
  <path class="fil2" d="M2361 6371l1225 0 268 0 1704 0c416,0 799,-151 1096,-400 -347,-806 -1148,-1370 -2081,-1370 -1081,0 -1985,757 -2211,1771z"/>
  <path class="fil3" d="M4572 6371l1006 -15c411,0 785,-145 1076,-385 375,-310 612,-779 612,-1308l0 -119c0,-1028 0,-2031 0,-3103 -408,0 -839,-10 -1253,13l-387 33c-379,46 -763,135 -1053,302l0 4581z"/>
  <path class="fil1" d="M4572 6371l992 0c416,0 793,-151 1089,-400 -343,-797 -1162,-1358 -2081,-1370l0 1770z"/>
  <path class="fil0" d="M6013 1294c-74,-727 -688,-1294 -1434,-1294 -746,0 -1360,562 -1444,1285l387 30c68,-522 513,-926 1056,-926 542,0 991,411 1049,939l387 -33z"/>
  <path class="fil0" d="M5202 4828c-169,178 -337,357 -506,536l-124 132 -124 -132c-169,-178 -337,-357 -506,-536l-87 -93 64 -110c135,-233 388,-359 653,-359 265,0 518,126 654,359l64 110 -87 93z"/>
  <path class="fil4" d="M5078 4711c-168,179 -337,357 -506,536 -169,-179 -337,-357 -506,-536 107,-184 307,-274 506,-274 200,0 399,90 506,274z"/>
  <path class="fil5" d="M5078 4711c-168,179 -337,357 -506,536l0 -810c199,0 399,90 506,274z"/>
  <path class="fil0" d="M3308 2113c756,0 1369,613 1369,1369 0,756 -613,1369 -1369,1369 -756,0 -1368,-613 -1368,-1369 0,-755 613,-1369 1368,-1369z"/>
  <path class="fil6" d="M3308 2346c627,0 1136,509 1136,1136 0,627 -509,1136 -1136,1136 -627,0 -1136,-509 -1136,-1136 0,-627 508,-1136 1136,-1136z"/>
  <path class="fil7" d="M3308 2346c518,0 955,347 1091,820 -137,473 -574,820 -1091,820 -518,0 -954,-347 -1091,-820 137,-474 573,-820 1091,-820z"/>
  <path class="fil0" d="M5836 2113c756,0 1369,613 1369,1369 0,756 -613,1369 -1369,1369 -756,0 -1369,-613 -1369,-1369 0,-755 613,-1369 1369,-1369z"/>
  <path class="fil6" d="M5836 2346c627,0 1136,509 1136,1136 0,627 -509,1136 -1136,1136 -627,0 -1136,-509 -1136,-1136 0,-627 509,-1136 1136,-1136z"/>
  <path class="fil7" d="M5836 2346c518,0 954,347 1091,820 -137,473 -574,820 -1091,820 -518,0 -955,-347 -1091,-820 137,-474 574,-820 1091,-820z"/>
  <path class="fil0" d="M3450 2776c405,0 734,328 734,733 0,405 -329,734 -734,734 -405,0 -734,-328 -734,-734 0,-135 37,-261 100,-370 52,130 179,220 328,220 195,0 353,-158 353,-353 0,-88 -32,-168 -85,-230 12,-1 25,-1 37,-1z"/>
  <path class="fil0" d="M5693 2776c405,0 734,328 734,733 0,405 -328,734 -734,734 -405,0 -733,-328 -733,-734 0,-135 37,-261 100,-370 53,130 180,220 328,220 195,0 353,-158 353,-353 0,-88 -32,-168 -85,-230 12,-1 24,-1 37,-1z"/>
  <path class="fil8" d="M4889 8560c-99,101 -218,152 -356,152 -111,0 -206,-23 -303,-79l0 -231c78,53 175,103 272,103 201,0 321,-138 321,-334 0,-196 -124,-339 -325,-339 -90,0 -163,32 -219,97 -61,70 -92,170 -92,303l0 913 -15 0c-111,0 -201,-90 -201,-201l0 -747c0,-317 194,-573 527,-573 164,0 298,56 399,169 95,105 142,239 142,400 0,143 -50,266 -149,366zm-4573 130c-211,0 -316,-143 -316,-344l0 -760c0,-111 90,-201 201,-201l15 0 0 260 364 0 0 207 -364 0 0 518c0,88 39,113 123,113l241 0 0 207 -264 0zm1253 -132c-107,102 -235,153 -383,153 -147,0 -275,-51 -381,-153 -107,-103 -160,-233 -160,-390 0,-307 234,-544 541,-544 147,0 275,52 382,154 108,103 161,233 161,389 0,157 -53,288 -160,390zm1008 -661c-32,53 -56,91 -73,114 -19,25 -38,45 -56,59 150,48 206,152 206,307l0 313 -15 0c-111,0 -201,-90 -201,-201l0 -92c0,-100 -45,-168 -151,-168l-196 0 0 460 -15 0c-111,0 -201,-90 -201,-201l0 -1112c0,-111 90,-201 201,-201l15 0 0 844 64 0c70,0 116,-24 142,-69l181 -306 246 0 -146 252zm1113 661c-107,102 -235,153 -383,153 -147,0 -275,-51 -381,-153 -107,-103 -160,-233 -160,-390 0,-307 234,-544 541,-544 147,0 275,52 382,154 108,103 161,233 161,389 0,157 -53,288 -160,390zm-156 -633c-59,-62 -135,-93 -228,-93 -198,0 -317,145 -317,336 0,189 122,336 317,336 196,0 317,-147 317,-336 0,-100 -30,-181 -89,-243zm-2122 0c-59,-62 -135,-93 -228,-93 -198,0 -317,145 -317,336 0,189 122,336 317,336 196,0 317,-147 317,-336 0,-100 -30,-181 -90,-243zm5811 627c-99,106 -226,159 -381,159 -163,0 -296,-56 -397,-169 -95,-107 -142,-241 -142,-400 0,-282 218,-518 504,-518 111,0 207,23 304,77l0 234c-78,-53 -175,-103 -272,-103 -201,0 -321,138 -321,334 0,194 127,339 325,339 90,0 164,-34 223,-101 59,-67 89,-166 89,-299l0 -727c0,-111 90,-201 201,-201l15 0 0 961c0,169 -49,308 -148,414zm609 -1031c-23,25 -55,37 -95,37 -74,0 -127,-55 -127,-128 0,-75 52,-126 127,-126 72,0 127,53 127,126 0,36 -10,67 -32,91zm1096 582c0,-85 -32,-152 -97,-203 -58,-46 -131,-69 -219,-69 -195,0 -320,153 -320,341 0,181 133,332 318,332 129,0 198,-75 272,-169l0 271c-38,28 -81,59 -125,77 -46,19 -102,29 -166,29 -310,0 -515,-257 -515,-554 0,-153 47,-279 143,-377 101,-104 234,-156 397,-156 308,0 529,177 529,497l0 569 -15 0c-111,0 -201,-90 -201,-201l0 -386zm-2952 -61c-27,-84 -61,-126 -140,-170 -187,-104 -371,-16 -456,169l596 1zm-165 665c-138,29 -273,7 -405,-67 -129,-72 -215,-179 -258,-320 -87,-286 92,-604 379,-681 143,-38 279,-21 409,52 216,121 294,307 281,547l-869 -2c13,98 74,175 159,222 87,48 166,60 240,37 82,-26 148,-93 203,-155l177 129c-72,129 -171,206 -316,237zm1818 -1063l216 0 0 1045 -15 0c-111,0 -201,-90 -201,-201l0 -844z"/>
 </g>
</svg>
